<mxfile host="Electron" modified="2024-05-19T08:23:44.054Z" agent="Mozilla/5.0 (Macintosh; Intel Mac OS X 10_15_7) AppleWebKit/537.36 (KHTML, like Gecko) draw.io/24.2.5 Chrome/120.0.6099.109 Electron/28.1.0 Safari/537.36" etag="B1Pv1pIPbnKT7cy0kJ6r" version="24.2.5" type="device">
  <diagram name="vllm-prefix" id="puwtIg8Mi4w2bpVtUXiK">
    <mxGraphModel dx="2440" dy="-1809" grid="1" gridSize="10" guides="1" tooltips="1" connect="1" arrows="1" fold="1" page="1" pageScale="1" pageWidth="2339" pageHeight="3300" math="0" shadow="0">
      <root>
        <mxCell id="0" />
        <mxCell id="1" parent="0" />
        <mxCell id="KSI9k0JgUmXzMZMYq2L--56" value="" style="rounded=1;whiteSpace=wrap;html=1;sketch=1;curveFitting=1;jiggle=2;fillColor=#d5e8d4;strokeColor=#82b366;" vertex="1" parent="1">
          <mxGeometry x="90.72" y="4142.5" width="1550" height="510" as="geometry" />
        </mxCell>
        <mxCell id="ZuZpT9G9H3UbYHAg9cP5-368" value="&lt;div style=&quot;text-align: start; font-size: 20px;&quot;&gt;&lt;span style=&quot;background-color: initial; white-space-collapse: preserve; font-size: 20px;&quot;&gt;Bacth=8&lt;/span&gt;&lt;/div&gt;" style="whiteSpace=wrap;html=1;fontFamily=Comic Sans MS;fillColor=#dae8fc;strokeColor=#6c8ebf;rounded=1;sketch=1;curveFitting=1;jiggle=2;strokeWidth=2;fontStyle=1;fontSize=20;textDirection=vertical-rl;" vertex="1" parent="1">
          <mxGeometry x="80" y="3535" width="70" height="475" as="geometry" />
        </mxCell>
        <mxCell id="ZuZpT9G9H3UbYHAg9cP5-370" value="&lt;div style=&quot;text-align: start; font-size: 20px;&quot;&gt;&lt;span style=&quot;background-color: initial; white-space-collapse: preserve; font-size: 20px;&quot;&gt;Heads=8&lt;/span&gt;&lt;/div&gt;" style="whiteSpace=wrap;html=1;fontFamily=Comic Sans MS;fillColor=#dae8fc;strokeColor=#6c8ebf;rounded=1;sketch=1;curveFitting=1;jiggle=2;strokeWidth=2;fontStyle=1;fontSize=20;" vertex="1" parent="1">
          <mxGeometry x="170" y="3470" width="470" height="60" as="geometry" />
        </mxCell>
        <mxCell id="ZuZpT9G9H3UbYHAg9cP5-372" value="&lt;div style=&quot;text-align: start; font-size: 14px;&quot;&gt;head&lt;/div&gt;" style="whiteSpace=wrap;html=1;fontFamily=Comic Sans MS;fillColor=#ffe6cc;strokeColor=#d79b00;rounded=1;sketch=1;curveFitting=1;jiggle=2;strokeWidth=2;fontStyle=1;fontSize=14;" vertex="1" parent="1">
          <mxGeometry x="170" y="3540" width="50" height="50" as="geometry" />
        </mxCell>
        <mxCell id="ZuZpT9G9H3UbYHAg9cP5-415" style="rounded=0;orthogonalLoop=1;jettySize=auto;html=1;exitX=1;exitY=0.5;exitDx=0;exitDy=0;entryX=0;entryY=0.5;entryDx=0;entryDy=0;strokeWidth=2;sketch=1;curveFitting=1;jiggle=2;" edge="1" parent="1" target="ZuZpT9G9H3UbYHAg9cP5-408">
          <mxGeometry relative="1" as="geometry">
            <mxPoint x="640.8299999999999" y="3570" as="sourcePoint" />
          </mxGeometry>
        </mxCell>
        <mxCell id="ZuZpT9G9H3UbYHAg9cP5-408" value="&lt;div style=&quot;text-align: start; font-size: 18px;&quot;&gt;&lt;br&gt;&lt;/div&gt;" style="whiteSpace=wrap;html=1;fontFamily=Comic Sans MS;fillColor=#d5e8d4;strokeColor=#82b366;rounded=1;sketch=1;curveFitting=1;jiggle=2;strokeWidth=2;fontStyle=1;fontSize=18;" vertex="1" parent="1">
          <mxGeometry x="720.44" y="3605" width="70" height="355" as="geometry" />
        </mxCell>
        <mxCell id="ZuZpT9G9H3UbYHAg9cP5-444" style="rounded=0;orthogonalLoop=1;jettySize=auto;html=1;entryX=0;entryY=0.5;entryDx=0;entryDy=0;strokeWidth=2;sketch=1;curveFitting=1;jiggle=2;shadow=0;exitX=1;exitY=0.5;exitDx=0;exitDy=0;" edge="1" parent="1" source="ZuZpT9G9H3UbYHAg9cP5-409" target="ZuZpT9G9H3UbYHAg9cP5-423">
          <mxGeometry relative="1" as="geometry">
            <Array as="points">
              <mxPoint x="828.55" y="3685" />
            </Array>
          </mxGeometry>
        </mxCell>
        <mxCell id="ZuZpT9G9H3UbYHAg9cP5-409" value="&lt;div style=&quot;text-align: start; font-size: 18px;&quot;&gt;&lt;br&gt;&lt;/div&gt;" style="whiteSpace=wrap;html=1;fontFamily=Comic Sans MS;fillColor=#dae8fc;strokeColor=#6c8ebf;rounded=1;strokeWidth=2;fontStyle=1;fontSize=18;dashed=1;" vertex="1" parent="1">
          <mxGeometry x="732.53" y="3622.5" width="45" height="40" as="geometry" />
        </mxCell>
        <mxCell id="ZuZpT9G9H3UbYHAg9cP5-410" value="&lt;div style=&quot;text-align: start; font-size: 18px;&quot;&gt;&lt;br&gt;&lt;/div&gt;" style="whiteSpace=wrap;html=1;fontFamily=Comic Sans MS;fillColor=#dae8fc;strokeColor=#6c8ebf;rounded=1;sketch=1;curveFitting=1;jiggle=2;strokeWidth=2;fontStyle=1;fontSize=18;" vertex="1" parent="1">
          <mxGeometry x="732.53" y="3662.5" width="45" height="40" as="geometry" />
        </mxCell>
        <mxCell id="ZuZpT9G9H3UbYHAg9cP5-411" value="&lt;div style=&quot;text-align: start; font-size: 18px;&quot;&gt;&lt;br&gt;&lt;/div&gt;" style="whiteSpace=wrap;html=1;fontFamily=Comic Sans MS;fillColor=#dae8fc;strokeColor=#6c8ebf;rounded=1;sketch=1;curveFitting=1;jiggle=2;strokeWidth=2;fontStyle=1;fontSize=18;" vertex="1" parent="1">
          <mxGeometry x="732.53" y="3702.5" width="45" height="40" as="geometry" />
        </mxCell>
        <mxCell id="ZuZpT9G9H3UbYHAg9cP5-412" value="&lt;div style=&quot;text-align: start; font-size: 18px;&quot;&gt;&lt;br&gt;&lt;/div&gt;" style="whiteSpace=wrap;html=1;fontFamily=Comic Sans MS;fillColor=#dae8fc;strokeColor=#6c8ebf;rounded=1;sketch=1;curveFitting=1;jiggle=2;strokeWidth=2;fontStyle=1;fontSize=18;" vertex="1" parent="1">
          <mxGeometry x="733.3499999999999" y="3742.5" width="45" height="40" as="geometry" />
        </mxCell>
        <mxCell id="ZuZpT9G9H3UbYHAg9cP5-413" value="&lt;div style=&quot;text-align: start; font-size: 18px;&quot;&gt;&lt;br&gt;&lt;/div&gt;" style="whiteSpace=wrap;html=1;fontFamily=Comic Sans MS;fillColor=#dae8fc;strokeColor=#6c8ebf;rounded=1;strokeWidth=2;fontStyle=1;fontSize=18;sketch=1;curveFitting=1;jiggle=2;" vertex="1" parent="1">
          <mxGeometry x="733.3500000000001" y="3782.5" width="45" height="35" as="geometry" />
        </mxCell>
        <mxCell id="ZuZpT9G9H3UbYHAg9cP5-416" value="&lt;div style=&quot;text-align: start; font-size: 18px;&quot;&gt;&lt;br&gt;&lt;/div&gt;" style="whiteSpace=wrap;html=1;fontFamily=Comic Sans MS;fillColor=#dae8fc;strokeColor=#6c8ebf;rounded=1;sketch=1;curveFitting=1;jiggle=2;strokeWidth=2;fontStyle=1;fontSize=18;" vertex="1" parent="1">
          <mxGeometry x="733.3499999999999" y="3822.5" width="45" height="40" as="geometry" />
        </mxCell>
        <mxCell id="ZuZpT9G9H3UbYHAg9cP5-417" value="&lt;div style=&quot;text-align: start; font-size: 18px;&quot;&gt;&lt;br&gt;&lt;/div&gt;" style="whiteSpace=wrap;html=1;fontFamily=Comic Sans MS;fillColor=#dae8fc;strokeColor=#6c8ebf;rounded=1;sketch=1;curveFitting=1;jiggle=2;strokeWidth=2;fontStyle=1;fontSize=18;" vertex="1" parent="1">
          <mxGeometry x="733.3499999999999" y="3862.5" width="45" height="40" as="geometry" />
        </mxCell>
        <mxCell id="ZuZpT9G9H3UbYHAg9cP5-418" value="&lt;div style=&quot;text-align: start; font-size: 18px;&quot;&gt;&lt;br&gt;&lt;/div&gt;" style="whiteSpace=wrap;html=1;fontFamily=Comic Sans MS;fillColor=#dae8fc;strokeColor=#6c8ebf;rounded=1;sketch=1;curveFitting=1;jiggle=2;strokeWidth=2;fontStyle=1;fontSize=18;" vertex="1" parent="1">
          <mxGeometry x="733.3499999999999" y="3902.5" width="45" height="40" as="geometry" />
        </mxCell>
        <mxCell id="ZuZpT9G9H3UbYHAg9cP5-420" value="BLOCK_M=BLOCK_N=BLOCK=128" style="text;align=center;verticalAlign=middle;resizable=0;points=[];autosize=1;strokeColor=#82b366;fillColor=#d5e8d4;fontFamily=Comic Sans MS;fontStyle=1;sketch=1;curveFitting=1;jiggle=2;strokeWidth=1;" vertex="1" parent="1">
          <mxGeometry x="861.3" y="3960" width="210" height="30" as="geometry" />
        </mxCell>
        <mxCell id="ZuZpT9G9H3UbYHAg9cP5-443" style="rounded=0;orthogonalLoop=1;jettySize=auto;html=1;entryX=0.5;entryY=0;entryDx=0;entryDy=0;sketch=1;curveFitting=1;jiggle=2;strokeWidth=2;" edge="1" parent="1" target="ZuZpT9G9H3UbYHAg9cP5-408">
          <mxGeometry relative="1" as="geometry">
            <mxPoint x="802.06" y="3560" as="sourcePoint" />
          </mxGeometry>
        </mxCell>
        <mxCell id="ZuZpT9G9H3UbYHAg9cP5-421" value="&lt;span style=&quot;font-family: &amp;quot;Comic Sans MS&amp;quot;;&quot;&gt;NUM_BLOCKS=8&lt;/span&gt;" style="text;html=1;align=center;verticalAlign=middle;resizable=0;points=[];autosize=1;strokeColor=#82b366;fillColor=#d5e8d4;sketch=1;curveFitting=1;jiggle=2;fontStyle=1" vertex="1" parent="1">
          <mxGeometry x="767.16" y="3520" width="120" height="30" as="geometry" />
        </mxCell>
        <mxCell id="ZuZpT9G9H3UbYHAg9cP5-422" value="&lt;span style=&quot;font-family: &amp;quot;Comic Sans MS&amp;quot;;&quot;&gt;=max_input_len/BLOCK=1024/128&lt;/span&gt;" style="text;html=1;align=center;verticalAlign=middle;resizable=0;points=[];autosize=1;strokeColor=#82b366;fillColor=#d5e8d4;sketch=1;curveFitting=1;jiggle=2;" vertex="1" parent="1">
          <mxGeometry x="886.6" y="3520" width="220" height="30" as="geometry" />
        </mxCell>
        <mxCell id="ZuZpT9G9H3UbYHAg9cP5-447" style="rounded=0;orthogonalLoop=1;jettySize=auto;html=1;exitX=1;exitY=0.5;exitDx=0;exitDy=0;entryX=0;entryY=0.5;entryDx=0;entryDy=0;strokeWidth=2;sketch=1;curveFitting=1;jiggle=2;" edge="1" parent="1" source="ZuZpT9G9H3UbYHAg9cP5-423" target="ZuZpT9G9H3UbYHAg9cP5-535">
          <mxGeometry relative="1" as="geometry">
            <mxPoint x="953.8500000000004" y="4265" as="targetPoint" />
          </mxGeometry>
        </mxCell>
        <mxCell id="ZuZpT9G9H3UbYHAg9cP5-423" value="Tile 128x128" style="whiteSpace=wrap;html=1;fontFamily=Comic Sans MS;fillColor=#dae8fc;strokeColor=#6c8ebf;rounded=1;strokeWidth=2;fontStyle=1;fontSize=16;dashed=1;" vertex="1" parent="1">
          <mxGeometry x="910.7800000000001" y="3715" width="138.12" height="140" as="geometry" />
        </mxCell>
        <mxCell id="ZuZpT9G9H3UbYHAg9cP5-424" value="&lt;div style=&quot;text-align: start; font-size: 18px;&quot;&gt;&lt;span style=&quot;font-size: 11px;&quot;&gt;BLOCK_M&lt;/span&gt;&lt;span style=&quot;font-size: 11px; background-color: initial;&quot;&gt;=128&lt;/span&gt;&lt;/div&gt;" style="whiteSpace=wrap;html=1;fontFamily=Comic Sans MS;fillColor=#dae8fc;strokeColor=#6c8ebf;rounded=1;sketch=1;curveFitting=1;jiggle=2;strokeWidth=2;fontStyle=1;fontSize=18;textDirection=vertical-rl;" vertex="1" parent="1">
          <mxGeometry x="858.65" y="3715" width="45" height="140" as="geometry" />
        </mxCell>
        <mxCell id="ZuZpT9G9H3UbYHAg9cP5-425" value="&lt;div style=&quot;text-align: start; font-size: 11px;&quot;&gt;BLOCK_N=128&lt;/div&gt;" style="whiteSpace=wrap;html=1;fontFamily=Comic Sans MS;fillColor=#dae8fc;strokeColor=#6c8ebf;rounded=1;sketch=1;curveFitting=1;jiggle=2;strokeWidth=2;fontStyle=1;fontSize=11;" vertex="1" parent="1">
          <mxGeometry x="910.15" y="3670" width="138.75" height="35" as="geometry" />
        </mxCell>
        <mxCell id="ZuZpT9G9H3UbYHAg9cP5-427" value="&lt;div style=&quot;text-align: start; font-size: 18px;&quot;&gt;&lt;br&gt;&lt;/div&gt;" style="whiteSpace=wrap;html=1;fontFamily=Comic Sans MS;fillColor=#d5e8d4;strokeColor=#82b366;rounded=1;sketch=1;curveFitting=1;jiggle=2;strokeWidth=2;fontStyle=1;fontSize=18;" vertex="1" parent="1">
          <mxGeometry x="1221.77" y="3535" width="429.65" height="415" as="geometry" />
        </mxCell>
        <mxCell id="ZuZpT9G9H3UbYHAg9cP5-428" value="&lt;div style=&quot;text-align: start; font-size: 18px;&quot;&gt;skip&lt;/div&gt;" style="whiteSpace=wrap;html=1;fontFamily=Comic Sans MS;fillColor=#e1d5e7;strokeColor=#9673a6;rounded=1;strokeWidth=2;fontStyle=1;fontSize=18;sketch=1;curveFitting=1;jiggle=2;" vertex="1" parent="1">
          <mxGeometry x="1241.8799999999999" y="3565" width="88.23" height="80" as="geometry" />
        </mxCell>
        <mxCell id="ZuZpT9G9H3UbYHAg9cP5-429" value="&lt;div style=&quot;text-align: start; font-size: 18px;&quot;&gt;&lt;span style=&quot;font-size: 18px; background-color: initial;&quot;&gt;Q seq_len Tile_Q=BLOCK_M=128&lt;/span&gt;&lt;/div&gt;" style="whiteSpace=wrap;html=1;fontFamily=Comic Sans MS;fillColor=#dae8fc;strokeColor=#6c8ebf;rounded=1;sketch=1;curveFitting=1;jiggle=2;strokeWidth=2;fontStyle=1;fontSize=18;textDirection=vertical-rl;" vertex="1" parent="1">
          <mxGeometry x="1161.42" y="3540" width="50" height="410" as="geometry" />
        </mxCell>
        <mxCell id="ZuZpT9G9H3UbYHAg9cP5-430" value="&lt;div style=&quot;text-align: start; font-size: 18px;&quot;&gt;K/V seq_len Tile_K/V=BLOCK_N=128&lt;/div&gt;" style="whiteSpace=wrap;html=1;fontFamily=Comic Sans MS;fillColor=#dae8fc;strokeColor=#6c8ebf;rounded=1;sketch=1;curveFitting=1;jiggle=2;strokeWidth=2;fontStyle=1;fontSize=18;" vertex="1" parent="1">
          <mxGeometry x="1216.16" y="3470" width="435.26" height="50" as="geometry" />
        </mxCell>
        <mxCell id="ZuZpT9G9H3UbYHAg9cP5-440" value="&lt;div style=&quot;text-align: start; font-size: 17px;&quot;&gt;&lt;span style=&quot;font-size: 17px;&quot;&gt;Prefix Cache&lt;/span&gt;&lt;/div&gt;" style="whiteSpace=wrap;html=1;fontFamily=Comic Sans MS;fillColor=#e1d5e7;strokeColor=#9673a6;rounded=1;sketch=1;curveFitting=1;jiggle=2;strokeWidth=2;fontStyle=1;fontSize=17;textDirection=vertical-rl;" vertex="1" parent="1">
          <mxGeometry x="1661.42" y="3540" width="48.58" height="200" as="geometry" />
        </mxCell>
        <mxCell id="ZuZpT9G9H3UbYHAg9cP5-441" value="&lt;div style=&quot;text-align: start; font-size: 14px;&quot;&gt;&lt;span style=&quot;font-size: 14px;&quot;&gt;New Tokens&lt;/span&gt;&lt;/div&gt;" style="whiteSpace=wrap;html=1;fontFamily=Comic Sans MS;fillColor=#d5e8d4;strokeColor=#82b366;rounded=1;sketch=1;curveFitting=1;jiggle=2;strokeWidth=2;fontStyle=1;fontSize=14;textDirection=vertical-rl;" vertex="1" parent="1">
          <mxGeometry x="1661.42" y="3760" width="48.58" height="170" as="geometry" />
        </mxCell>
        <mxCell id="ZuZpT9G9H3UbYHAg9cP5-442" value="max_input_len=1024" style="text;html=1;align=center;verticalAlign=middle;resizable=0;points=[];autosize=1;strokeColor=#82b366;fillColor=#d5e8d4;sketch=1;curveFitting=1;jiggle=2;fontFamily=Comic Sans MS;fontStyle=1" vertex="1" parent="1">
          <mxGeometry x="894.3" y="3915" width="140" height="30" as="geometry" />
        </mxCell>
        <mxCell id="ZuZpT9G9H3UbYHAg9cP5-451" style="rounded=0;orthogonalLoop=1;jettySize=auto;html=1;exitX=0.5;exitY=1;exitDx=0;exitDy=0;sketch=1;curveFitting=1;jiggle=2;strokeWidth=2;" edge="1" parent="1" source="ZuZpT9G9H3UbYHAg9cP5-446" target="ZuZpT9G9H3UbYHAg9cP5-450">
          <mxGeometry relative="1" as="geometry" />
        </mxCell>
        <mxCell id="ZuZpT9G9H3UbYHAg9cP5-446" value="&lt;div style=&quot;text-align: start; font-size: 17px;&quot;&gt;&lt;span style=&quot;font-size: 17px;&quot;&gt;Prefix Cache&lt;/span&gt;&lt;/div&gt;" style="whiteSpace=wrap;html=1;fontFamily=Comic Sans MS;fillColor=#dae8fc;strokeColor=#6c8ebf;rounded=1;sketch=1;curveFitting=1;jiggle=2;strokeWidth=2;fontStyle=1;fontSize=17;textDirection=ltr;" vertex="1" parent="1">
          <mxGeometry x="1240.92" y="3970" width="199.08" height="40" as="geometry" />
        </mxCell>
        <mxCell id="ZuZpT9G9H3UbYHAg9cP5-452" style="rounded=0;orthogonalLoop=1;jettySize=auto;html=1;exitX=0.5;exitY=1;exitDx=0;exitDy=0;sketch=1;curveFitting=1;jiggle=2;strokeWidth=2;" edge="1" parent="1" source="ZuZpT9G9H3UbYHAg9cP5-448">
          <mxGeometry relative="1" as="geometry">
            <mxPoint x="1572.42" y="4060" as="targetPoint" />
          </mxGeometry>
        </mxCell>
        <mxCell id="ZuZpT9G9H3UbYHAg9cP5-448" value="&lt;div style=&quot;text-align: start; font-size: 14px;&quot;&gt;&lt;span style=&quot;font-size: 14px;&quot;&gt;New Tokens&lt;/span&gt;&lt;/div&gt;" style="whiteSpace=wrap;html=1;fontFamily=Comic Sans MS;fillColor=#d5e8d4;strokeColor=#82b366;rounded=1;sketch=1;curveFitting=1;jiggle=2;strokeWidth=2;fontStyle=1;fontSize=14;" vertex="1" parent="1">
          <mxGeometry x="1450" y="3970" width="181.77" height="40" as="geometry" />
        </mxCell>
        <mxCell id="ZuZpT9G9H3UbYHAg9cP5-450" value="&lt;div style=&quot;text-align: start; font-size: 14px;&quot;&gt;&lt;span style=&quot;font-size: 14px;&quot;&gt;New Tokens&lt;/span&gt;&lt;/div&gt;" style="whiteSpace=wrap;html=1;fontFamily=Comic Sans MS;fillColor=#d5e8d4;strokeColor=#82b366;rounded=1;sketch=1;curveFitting=1;jiggle=2;strokeWidth=2;fontStyle=1;fontSize=14;" vertex="1" parent="1">
          <mxGeometry x="1450" y="4060" width="180.87" height="40" as="geometry" />
        </mxCell>
        <mxCell id="ZuZpT9G9H3UbYHAg9cP5-453" value="Q" style="text;html=1;align=center;verticalAlign=middle;resizable=0;points=[];autosize=1;strokeColor=#b85450;fillColor=#f8cecc;fontStyle=1;fontFamily=Comic Sans MS;sketch=1;curveFitting=1;jiggle=2;" vertex="1" parent="1">
          <mxGeometry x="1676.42" y="4060" width="30" height="30" as="geometry" />
        </mxCell>
        <mxCell id="ZuZpT9G9H3UbYHAg9cP5-454" value="K/V" style="text;html=1;align=center;verticalAlign=middle;resizable=0;points=[];autosize=1;strokeColor=#d79b00;fillColor=#ffe6cc;fontStyle=1;fontFamily=Comic Sans MS;sketch=1;curveFitting=1;jiggle=2;" vertex="1" parent="1">
          <mxGeometry x="1666.42" y="3970" width="40" height="30" as="geometry" />
        </mxCell>
        <mxCell id="ZuZpT9G9H3UbYHAg9cP5-457" value="Attention" style="text;html=1;align=center;verticalAlign=middle;resizable=0;points=[];autosize=1;strokeColor=none;fillColor=none;fontFamily=Comic Sans MS;fontStyle=1" vertex="1" parent="1">
          <mxGeometry x="1476.42" y="4020" width="80" height="30" as="geometry" />
        </mxCell>
        <mxCell id="ZuZpT9G9H3UbYHAg9cP5-465" value="&lt;div style=&quot;text-align: start; font-size: 18px;&quot;&gt;&lt;span style=&quot;font-size: 14px;&quot;&gt;head&lt;/span&gt;&lt;br&gt;&lt;/div&gt;" style="whiteSpace=wrap;html=1;fontFamily=Comic Sans MS;fillColor=#ffe6cc;strokeColor=#d79b00;rounded=1;sketch=1;curveFitting=1;jiggle=2;strokeWidth=2;fontStyle=1;fontSize=18;" vertex="1" parent="1">
          <mxGeometry x="230" y="3540" width="50" height="50" as="geometry" />
        </mxCell>
        <mxCell id="ZuZpT9G9H3UbYHAg9cP5-466" value="&lt;div style=&quot;text-align: start; font-size: 18px;&quot;&gt;&lt;span style=&quot;font-size: 14px;&quot;&gt;head&lt;/span&gt;&lt;br&gt;&lt;/div&gt;" style="whiteSpace=wrap;html=1;fontFamily=Comic Sans MS;fillColor=#ffe6cc;strokeColor=#d79b00;rounded=1;sketch=1;curveFitting=1;jiggle=2;strokeWidth=2;fontStyle=1;fontSize=18;" vertex="1" parent="1">
          <mxGeometry x="290" y="3540" width="50" height="50" as="geometry" />
        </mxCell>
        <mxCell id="ZuZpT9G9H3UbYHAg9cP5-467" value="&lt;div style=&quot;text-align: start; font-size: 18px;&quot;&gt;&lt;span style=&quot;font-size: 14px;&quot;&gt;head&lt;/span&gt;&lt;br&gt;&lt;/div&gt;" style="whiteSpace=wrap;html=1;fontFamily=Comic Sans MS;fillColor=#ffe6cc;strokeColor=#d79b00;rounded=1;sketch=1;curveFitting=1;jiggle=2;strokeWidth=2;fontStyle=1;fontSize=18;" vertex="1" parent="1">
          <mxGeometry x="350" y="3540" width="50" height="50" as="geometry" />
        </mxCell>
        <mxCell id="ZuZpT9G9H3UbYHAg9cP5-468" value="&lt;div style=&quot;text-align: start; font-size: 18px;&quot;&gt;&lt;span style=&quot;font-size: 14px;&quot;&gt;head&lt;/span&gt;&lt;br&gt;&lt;/div&gt;" style="whiteSpace=wrap;html=1;fontFamily=Comic Sans MS;fillColor=#ffe6cc;strokeColor=#d79b00;rounded=1;sketch=1;curveFitting=1;jiggle=2;strokeWidth=2;fontStyle=1;fontSize=18;" vertex="1" parent="1">
          <mxGeometry x="410" y="3540" width="50" height="50" as="geometry" />
        </mxCell>
        <mxCell id="ZuZpT9G9H3UbYHAg9cP5-469" value="&lt;div style=&quot;text-align: start; font-size: 18px;&quot;&gt;&lt;span style=&quot;font-size: 14px;&quot;&gt;head&lt;/span&gt;&lt;br&gt;&lt;/div&gt;" style="whiteSpace=wrap;html=1;fontFamily=Comic Sans MS;fillColor=#ffe6cc;strokeColor=#d79b00;rounded=1;sketch=1;curveFitting=1;jiggle=2;strokeWidth=2;fontStyle=1;fontSize=18;" vertex="1" parent="1">
          <mxGeometry x="470" y="3540" width="50" height="50" as="geometry" />
        </mxCell>
        <mxCell id="ZuZpT9G9H3UbYHAg9cP5-470" value="&lt;div style=&quot;text-align: start; font-size: 18px;&quot;&gt;&lt;span style=&quot;font-size: 14px;&quot;&gt;head&lt;/span&gt;&lt;br&gt;&lt;/div&gt;" style="whiteSpace=wrap;html=1;fontFamily=Comic Sans MS;fillColor=#ffe6cc;strokeColor=#d79b00;rounded=1;sketch=1;curveFitting=1;jiggle=2;strokeWidth=2;fontStyle=1;fontSize=18;" vertex="1" parent="1">
          <mxGeometry x="530" y="3540" width="50" height="50" as="geometry" />
        </mxCell>
        <mxCell id="ZuZpT9G9H3UbYHAg9cP5-471" value="&lt;div style=&quot;text-align: start; font-size: 15px;&quot;&gt;head&lt;/div&gt;" style="whiteSpace=wrap;html=1;fontFamily=Comic Sans MS;fillColor=#d5e8d4;strokeColor=#82b366;rounded=1;strokeWidth=2;fontStyle=1;fontSize=15;dashed=1;" vertex="1" parent="1">
          <mxGeometry x="590" y="3540" width="50" height="50" as="geometry" />
        </mxCell>
        <mxCell id="ZuZpT9G9H3UbYHAg9cP5-472" value="&lt;div style=&quot;text-align: start; font-size: 18px;&quot;&gt;&lt;span style=&quot;font-size: 14px;&quot;&gt;head&lt;/span&gt;&lt;br&gt;&lt;/div&gt;" style="whiteSpace=wrap;html=1;fontFamily=Comic Sans MS;fillColor=#ffe6cc;strokeColor=#d79b00;rounded=1;sketch=1;curveFitting=1;jiggle=2;strokeWidth=2;fontStyle=1;fontSize=18;" vertex="1" parent="1">
          <mxGeometry x="170" y="3600" width="50" height="50" as="geometry" />
        </mxCell>
        <mxCell id="ZuZpT9G9H3UbYHAg9cP5-473" value="&lt;div style=&quot;text-align: start; font-size: 18px;&quot;&gt;&lt;span style=&quot;font-size: 14px;&quot;&gt;head&lt;/span&gt;&lt;br&gt;&lt;/div&gt;" style="whiteSpace=wrap;html=1;fontFamily=Comic Sans MS;fillColor=#ffe6cc;strokeColor=#d79b00;rounded=1;sketch=1;curveFitting=1;jiggle=2;strokeWidth=2;fontStyle=1;fontSize=18;" vertex="1" parent="1">
          <mxGeometry x="230" y="3600" width="50" height="50" as="geometry" />
        </mxCell>
        <mxCell id="ZuZpT9G9H3UbYHAg9cP5-474" value="&lt;div style=&quot;text-align: start; font-size: 18px;&quot;&gt;&lt;span style=&quot;font-size: 14px;&quot;&gt;head&lt;/span&gt;&lt;br&gt;&lt;/div&gt;" style="whiteSpace=wrap;html=1;fontFamily=Comic Sans MS;fillColor=#ffe6cc;strokeColor=#d79b00;rounded=1;sketch=1;curveFitting=1;jiggle=2;strokeWidth=2;fontStyle=1;fontSize=18;" vertex="1" parent="1">
          <mxGeometry x="290" y="3600" width="50" height="50" as="geometry" />
        </mxCell>
        <mxCell id="ZuZpT9G9H3UbYHAg9cP5-475" value="&lt;div style=&quot;text-align: start; font-size: 18px;&quot;&gt;&lt;span style=&quot;font-size: 14px;&quot;&gt;head&lt;/span&gt;&lt;br&gt;&lt;/div&gt;" style="whiteSpace=wrap;html=1;fontFamily=Comic Sans MS;fillColor=#ffe6cc;strokeColor=#d79b00;rounded=1;sketch=1;curveFitting=1;jiggle=2;strokeWidth=2;fontStyle=1;fontSize=18;" vertex="1" parent="1">
          <mxGeometry x="350" y="3600" width="50" height="50" as="geometry" />
        </mxCell>
        <mxCell id="ZuZpT9G9H3UbYHAg9cP5-476" value="&lt;div style=&quot;text-align: start; font-size: 18px;&quot;&gt;&lt;span style=&quot;font-size: 14px;&quot;&gt;head&lt;/span&gt;&lt;br&gt;&lt;/div&gt;" style="whiteSpace=wrap;html=1;fontFamily=Comic Sans MS;fillColor=#ffe6cc;strokeColor=#d79b00;rounded=1;sketch=1;curveFitting=1;jiggle=2;strokeWidth=2;fontStyle=1;fontSize=18;" vertex="1" parent="1">
          <mxGeometry x="410" y="3600" width="50" height="50" as="geometry" />
        </mxCell>
        <mxCell id="ZuZpT9G9H3UbYHAg9cP5-477" value="&lt;div style=&quot;text-align: start; font-size: 18px;&quot;&gt;&lt;span style=&quot;font-size: 14px;&quot;&gt;head&lt;/span&gt;&lt;br&gt;&lt;/div&gt;" style="whiteSpace=wrap;html=1;fontFamily=Comic Sans MS;fillColor=#ffe6cc;strokeColor=#d79b00;rounded=1;sketch=1;curveFitting=1;jiggle=2;strokeWidth=2;fontStyle=1;fontSize=18;" vertex="1" parent="1">
          <mxGeometry x="470" y="3600" width="50" height="50" as="geometry" />
        </mxCell>
        <mxCell id="ZuZpT9G9H3UbYHAg9cP5-478" value="&lt;div style=&quot;text-align: start; font-size: 18px;&quot;&gt;&lt;span style=&quot;font-size: 14px;&quot;&gt;head&lt;/span&gt;&lt;br&gt;&lt;/div&gt;" style="whiteSpace=wrap;html=1;fontFamily=Comic Sans MS;fillColor=#ffe6cc;strokeColor=#d79b00;rounded=1;sketch=1;curveFitting=1;jiggle=2;strokeWidth=2;fontStyle=1;fontSize=18;" vertex="1" parent="1">
          <mxGeometry x="530" y="3600" width="50" height="50" as="geometry" />
        </mxCell>
        <mxCell id="ZuZpT9G9H3UbYHAg9cP5-479" value="&lt;div style=&quot;text-align: start; font-size: 18px;&quot;&gt;&lt;span style=&quot;font-size: 14px;&quot;&gt;head&lt;/span&gt;&lt;br&gt;&lt;/div&gt;" style="whiteSpace=wrap;html=1;fontFamily=Comic Sans MS;fillColor=#ffe6cc;strokeColor=#d79b00;rounded=1;sketch=1;curveFitting=1;jiggle=2;strokeWidth=2;fontStyle=1;fontSize=18;" vertex="1" parent="1">
          <mxGeometry x="590" y="3600" width="50" height="50" as="geometry" />
        </mxCell>
        <mxCell id="ZuZpT9G9H3UbYHAg9cP5-480" value="&lt;div style=&quot;text-align: start; font-size: 18px;&quot;&gt;&lt;span style=&quot;font-size: 14px;&quot;&gt;head&lt;/span&gt;&lt;br&gt;&lt;/div&gt;" style="whiteSpace=wrap;html=1;fontFamily=Comic Sans MS;fillColor=#ffe6cc;strokeColor=#d79b00;rounded=1;sketch=1;curveFitting=1;jiggle=2;strokeWidth=2;fontStyle=1;fontSize=18;" vertex="1" parent="1">
          <mxGeometry x="170" y="3658" width="50" height="50" as="geometry" />
        </mxCell>
        <mxCell id="ZuZpT9G9H3UbYHAg9cP5-481" value="&lt;div style=&quot;text-align: start; font-size: 18px;&quot;&gt;&lt;span style=&quot;font-size: 14px;&quot;&gt;head&lt;/span&gt;&lt;br&gt;&lt;/div&gt;" style="whiteSpace=wrap;html=1;fontFamily=Comic Sans MS;fillColor=#ffe6cc;strokeColor=#d79b00;rounded=1;sketch=1;curveFitting=1;jiggle=2;strokeWidth=2;fontStyle=1;fontSize=18;" vertex="1" parent="1">
          <mxGeometry x="230" y="3658" width="50" height="50" as="geometry" />
        </mxCell>
        <mxCell id="ZuZpT9G9H3UbYHAg9cP5-482" value="&lt;div style=&quot;text-align: start; font-size: 18px;&quot;&gt;&lt;span style=&quot;font-size: 14px;&quot;&gt;head&lt;/span&gt;&lt;br&gt;&lt;/div&gt;" style="whiteSpace=wrap;html=1;fontFamily=Comic Sans MS;fillColor=#ffe6cc;strokeColor=#d79b00;rounded=1;sketch=1;curveFitting=1;jiggle=2;strokeWidth=2;fontStyle=1;fontSize=18;" vertex="1" parent="1">
          <mxGeometry x="290" y="3658" width="50" height="50" as="geometry" />
        </mxCell>
        <mxCell id="ZuZpT9G9H3UbYHAg9cP5-483" value="&lt;div style=&quot;text-align: start; font-size: 18px;&quot;&gt;&lt;span style=&quot;font-size: 14px;&quot;&gt;head&lt;/span&gt;&lt;br&gt;&lt;/div&gt;" style="whiteSpace=wrap;html=1;fontFamily=Comic Sans MS;fillColor=#ffe6cc;strokeColor=#d79b00;rounded=1;sketch=1;curveFitting=1;jiggle=2;strokeWidth=2;fontStyle=1;fontSize=18;" vertex="1" parent="1">
          <mxGeometry x="350" y="3658" width="50" height="50" as="geometry" />
        </mxCell>
        <mxCell id="ZuZpT9G9H3UbYHAg9cP5-484" value="&lt;div style=&quot;text-align: start; font-size: 18px;&quot;&gt;&lt;span style=&quot;font-size: 14px;&quot;&gt;head&lt;/span&gt;&lt;br&gt;&lt;/div&gt;" style="whiteSpace=wrap;html=1;fontFamily=Comic Sans MS;fillColor=#ffe6cc;strokeColor=#d79b00;rounded=1;sketch=1;curveFitting=1;jiggle=2;strokeWidth=2;fontStyle=1;fontSize=18;" vertex="1" parent="1">
          <mxGeometry x="410" y="3658" width="50" height="50" as="geometry" />
        </mxCell>
        <mxCell id="ZuZpT9G9H3UbYHAg9cP5-485" value="&lt;div style=&quot;text-align: start; font-size: 18px;&quot;&gt;&lt;span style=&quot;font-size: 14px;&quot;&gt;head&lt;/span&gt;&lt;br&gt;&lt;/div&gt;" style="whiteSpace=wrap;html=1;fontFamily=Comic Sans MS;fillColor=#ffe6cc;strokeColor=#d79b00;rounded=1;sketch=1;curveFitting=1;jiggle=2;strokeWidth=2;fontStyle=1;fontSize=18;" vertex="1" parent="1">
          <mxGeometry x="470" y="3658" width="50" height="50" as="geometry" />
        </mxCell>
        <mxCell id="ZuZpT9G9H3UbYHAg9cP5-486" value="&lt;div style=&quot;text-align: start; font-size: 18px;&quot;&gt;&lt;span style=&quot;font-size: 14px;&quot;&gt;head&lt;/span&gt;&lt;br&gt;&lt;/div&gt;" style="whiteSpace=wrap;html=1;fontFamily=Comic Sans MS;fillColor=#ffe6cc;strokeColor=#d79b00;rounded=1;sketch=1;curveFitting=1;jiggle=2;strokeWidth=2;fontStyle=1;fontSize=18;" vertex="1" parent="1">
          <mxGeometry x="530" y="3658" width="50" height="50" as="geometry" />
        </mxCell>
        <mxCell id="ZuZpT9G9H3UbYHAg9cP5-487" value="&lt;div style=&quot;text-align: start; font-size: 18px;&quot;&gt;&lt;span style=&quot;font-size: 14px;&quot;&gt;head&lt;/span&gt;&lt;br&gt;&lt;/div&gt;" style="whiteSpace=wrap;html=1;fontFamily=Comic Sans MS;fillColor=#ffe6cc;strokeColor=#d79b00;rounded=1;sketch=1;curveFitting=1;jiggle=2;strokeWidth=2;fontStyle=1;fontSize=18;" vertex="1" parent="1">
          <mxGeometry x="590" y="3658" width="50" height="50" as="geometry" />
        </mxCell>
        <mxCell id="ZuZpT9G9H3UbYHAg9cP5-488" value="&lt;div style=&quot;text-align: start; font-size: 18px;&quot;&gt;&lt;span style=&quot;font-size: 14px;&quot;&gt;head&lt;/span&gt;&lt;br&gt;&lt;/div&gt;" style="whiteSpace=wrap;html=1;fontFamily=Comic Sans MS;fillColor=#ffe6cc;strokeColor=#d79b00;rounded=1;sketch=1;curveFitting=1;jiggle=2;strokeWidth=2;fontStyle=1;fontSize=18;" vertex="1" parent="1">
          <mxGeometry x="170" y="3720" width="50" height="50" as="geometry" />
        </mxCell>
        <mxCell id="ZuZpT9G9H3UbYHAg9cP5-489" value="&lt;div style=&quot;text-align: start; font-size: 18px;&quot;&gt;&lt;span style=&quot;font-size: 14px;&quot;&gt;head&lt;/span&gt;&lt;br&gt;&lt;/div&gt;" style="whiteSpace=wrap;html=1;fontFamily=Comic Sans MS;fillColor=#ffe6cc;strokeColor=#d79b00;rounded=1;sketch=1;curveFitting=1;jiggle=2;strokeWidth=2;fontStyle=1;fontSize=18;" vertex="1" parent="1">
          <mxGeometry x="230" y="3720" width="50" height="50" as="geometry" />
        </mxCell>
        <mxCell id="ZuZpT9G9H3UbYHAg9cP5-490" value="&lt;div style=&quot;text-align: start; font-size: 18px;&quot;&gt;&lt;span style=&quot;font-size: 14px;&quot;&gt;head&lt;/span&gt;&lt;br&gt;&lt;/div&gt;" style="whiteSpace=wrap;html=1;fontFamily=Comic Sans MS;fillColor=#ffe6cc;strokeColor=#d79b00;rounded=1;sketch=1;curveFitting=1;jiggle=2;strokeWidth=2;fontStyle=1;fontSize=18;" vertex="1" parent="1">
          <mxGeometry x="290" y="3720" width="50" height="50" as="geometry" />
        </mxCell>
        <mxCell id="ZuZpT9G9H3UbYHAg9cP5-491" value="&lt;div style=&quot;text-align: start; font-size: 18px;&quot;&gt;&lt;span style=&quot;font-size: 14px;&quot;&gt;head&lt;/span&gt;&lt;br&gt;&lt;/div&gt;" style="whiteSpace=wrap;html=1;fontFamily=Comic Sans MS;fillColor=#ffe6cc;strokeColor=#d79b00;rounded=1;sketch=1;curveFitting=1;jiggle=2;strokeWidth=2;fontStyle=1;fontSize=18;" vertex="1" parent="1">
          <mxGeometry x="350" y="3720" width="50" height="50" as="geometry" />
        </mxCell>
        <mxCell id="ZuZpT9G9H3UbYHAg9cP5-492" value="&lt;div style=&quot;text-align: start; font-size: 18px;&quot;&gt;&lt;span style=&quot;font-size: 14px;&quot;&gt;head&lt;/span&gt;&lt;br&gt;&lt;/div&gt;" style="whiteSpace=wrap;html=1;fontFamily=Comic Sans MS;fillColor=#ffe6cc;strokeColor=#d79b00;rounded=1;sketch=1;curveFitting=1;jiggle=2;strokeWidth=2;fontStyle=1;fontSize=18;" vertex="1" parent="1">
          <mxGeometry x="410" y="3720" width="50" height="50" as="geometry" />
        </mxCell>
        <mxCell id="ZuZpT9G9H3UbYHAg9cP5-493" value="&lt;div style=&quot;text-align: start; font-size: 18px;&quot;&gt;&lt;span style=&quot;font-size: 14px;&quot;&gt;head&lt;/span&gt;&lt;br&gt;&lt;/div&gt;" style="whiteSpace=wrap;html=1;fontFamily=Comic Sans MS;fillColor=#ffe6cc;strokeColor=#d79b00;rounded=1;sketch=1;curveFitting=1;jiggle=2;strokeWidth=2;fontStyle=1;fontSize=18;" vertex="1" parent="1">
          <mxGeometry x="470" y="3720" width="50" height="50" as="geometry" />
        </mxCell>
        <mxCell id="ZuZpT9G9H3UbYHAg9cP5-494" value="&lt;div style=&quot;text-align: start; font-size: 18px;&quot;&gt;&lt;span style=&quot;font-size: 14px;&quot;&gt;head&lt;/span&gt;&lt;br&gt;&lt;/div&gt;" style="whiteSpace=wrap;html=1;fontFamily=Comic Sans MS;fillColor=#ffe6cc;strokeColor=#d79b00;rounded=1;sketch=1;curveFitting=1;jiggle=2;strokeWidth=2;fontStyle=1;fontSize=18;" vertex="1" parent="1">
          <mxGeometry x="530" y="3720" width="50" height="50" as="geometry" />
        </mxCell>
        <mxCell id="ZuZpT9G9H3UbYHAg9cP5-495" value="&lt;div style=&quot;text-align: start; font-size: 18px;&quot;&gt;&lt;span style=&quot;font-size: 14px;&quot;&gt;head&lt;/span&gt;&lt;br&gt;&lt;/div&gt;" style="whiteSpace=wrap;html=1;fontFamily=Comic Sans MS;fillColor=#ffe6cc;strokeColor=#d79b00;rounded=1;sketch=1;curveFitting=1;jiggle=2;strokeWidth=2;fontStyle=1;fontSize=18;" vertex="1" parent="1">
          <mxGeometry x="590" y="3720" width="50" height="50" as="geometry" />
        </mxCell>
        <mxCell id="ZuZpT9G9H3UbYHAg9cP5-496" value="&lt;div style=&quot;text-align: start; font-size: 18px;&quot;&gt;&lt;span style=&quot;font-size: 14px;&quot;&gt;head&lt;/span&gt;&lt;br&gt;&lt;/div&gt;" style="whiteSpace=wrap;html=1;fontFamily=Comic Sans MS;fillColor=#ffe6cc;strokeColor=#d79b00;rounded=1;sketch=1;curveFitting=1;jiggle=2;strokeWidth=2;fontStyle=1;fontSize=18;" vertex="1" parent="1">
          <mxGeometry x="168" y="3780" width="50" height="50" as="geometry" />
        </mxCell>
        <mxCell id="ZuZpT9G9H3UbYHAg9cP5-497" value="&lt;div style=&quot;text-align: start; font-size: 18px;&quot;&gt;&lt;span style=&quot;font-size: 14px;&quot;&gt;head&lt;/span&gt;&lt;br&gt;&lt;/div&gt;" style="whiteSpace=wrap;html=1;fontFamily=Comic Sans MS;fillColor=#ffe6cc;strokeColor=#d79b00;rounded=1;sketch=1;curveFitting=1;jiggle=2;strokeWidth=2;fontStyle=1;fontSize=18;" vertex="1" parent="1">
          <mxGeometry x="228" y="3780" width="50" height="50" as="geometry" />
        </mxCell>
        <mxCell id="ZuZpT9G9H3UbYHAg9cP5-498" value="&lt;div style=&quot;text-align: start; font-size: 18px;&quot;&gt;&lt;span style=&quot;font-size: 14px;&quot;&gt;head&lt;/span&gt;&lt;br&gt;&lt;/div&gt;" style="whiteSpace=wrap;html=1;fontFamily=Comic Sans MS;fillColor=#ffe6cc;strokeColor=#d79b00;rounded=1;sketch=1;curveFitting=1;jiggle=2;strokeWidth=2;fontStyle=1;fontSize=18;" vertex="1" parent="1">
          <mxGeometry x="288" y="3780" width="50" height="50" as="geometry" />
        </mxCell>
        <mxCell id="ZuZpT9G9H3UbYHAg9cP5-499" value="&lt;div style=&quot;text-align: start; font-size: 18px;&quot;&gt;&lt;span style=&quot;font-size: 14px;&quot;&gt;head&lt;/span&gt;&lt;br&gt;&lt;/div&gt;" style="whiteSpace=wrap;html=1;fontFamily=Comic Sans MS;fillColor=#ffe6cc;strokeColor=#d79b00;rounded=1;sketch=1;curveFitting=1;jiggle=2;strokeWidth=2;fontStyle=1;fontSize=18;" vertex="1" parent="1">
          <mxGeometry x="348" y="3780" width="50" height="50" as="geometry" />
        </mxCell>
        <mxCell id="ZuZpT9G9H3UbYHAg9cP5-500" value="&lt;div style=&quot;text-align: start; font-size: 18px;&quot;&gt;&lt;span style=&quot;font-size: 14px;&quot;&gt;head&lt;/span&gt;&lt;br&gt;&lt;/div&gt;" style="whiteSpace=wrap;html=1;fontFamily=Comic Sans MS;fillColor=#ffe6cc;strokeColor=#d79b00;rounded=1;sketch=1;curveFitting=1;jiggle=2;strokeWidth=2;fontStyle=1;fontSize=18;" vertex="1" parent="1">
          <mxGeometry x="408" y="3780" width="50" height="50" as="geometry" />
        </mxCell>
        <mxCell id="ZuZpT9G9H3UbYHAg9cP5-501" value="&lt;div style=&quot;text-align: start; font-size: 18px;&quot;&gt;&lt;span style=&quot;font-size: 14px;&quot;&gt;head&lt;/span&gt;&lt;br&gt;&lt;/div&gt;" style="whiteSpace=wrap;html=1;fontFamily=Comic Sans MS;fillColor=#ffe6cc;strokeColor=#d79b00;rounded=1;sketch=1;curveFitting=1;jiggle=2;strokeWidth=2;fontStyle=1;fontSize=18;" vertex="1" parent="1">
          <mxGeometry x="468" y="3780" width="50" height="50" as="geometry" />
        </mxCell>
        <mxCell id="ZuZpT9G9H3UbYHAg9cP5-502" value="&lt;div style=&quot;text-align: start; font-size: 18px;&quot;&gt;&lt;span style=&quot;font-size: 14px;&quot;&gt;head&lt;/span&gt;&lt;br&gt;&lt;/div&gt;" style="whiteSpace=wrap;html=1;fontFamily=Comic Sans MS;fillColor=#ffe6cc;strokeColor=#d79b00;rounded=1;sketch=1;curveFitting=1;jiggle=2;strokeWidth=2;fontStyle=1;fontSize=18;" vertex="1" parent="1">
          <mxGeometry x="528" y="3780" width="50" height="50" as="geometry" />
        </mxCell>
        <mxCell id="ZuZpT9G9H3UbYHAg9cP5-503" value="&lt;div style=&quot;text-align: start; font-size: 18px;&quot;&gt;&lt;span style=&quot;font-size: 14px;&quot;&gt;head&lt;/span&gt;&lt;br&gt;&lt;/div&gt;" style="whiteSpace=wrap;html=1;fontFamily=Comic Sans MS;fillColor=#ffe6cc;strokeColor=#d79b00;rounded=1;sketch=1;curveFitting=1;jiggle=2;strokeWidth=2;fontStyle=1;fontSize=18;" vertex="1" parent="1">
          <mxGeometry x="588" y="3780" width="50" height="50" as="geometry" />
        </mxCell>
        <mxCell id="ZuZpT9G9H3UbYHAg9cP5-504" value="&lt;div style=&quot;text-align: start; font-size: 18px;&quot;&gt;&lt;span style=&quot;font-size: 14px;&quot;&gt;head&lt;/span&gt;&lt;br&gt;&lt;/div&gt;" style="whiteSpace=wrap;html=1;fontFamily=Comic Sans MS;fillColor=#ffe6cc;strokeColor=#d79b00;rounded=1;sketch=1;curveFitting=1;jiggle=2;strokeWidth=2;fontStyle=1;fontSize=18;" vertex="1" parent="1">
          <mxGeometry x="168" y="3840" width="50" height="50" as="geometry" />
        </mxCell>
        <mxCell id="ZuZpT9G9H3UbYHAg9cP5-505" value="&lt;div style=&quot;text-align: start; font-size: 18px;&quot;&gt;&lt;span style=&quot;font-size: 14px;&quot;&gt;head&lt;/span&gt;&lt;br&gt;&lt;/div&gt;" style="whiteSpace=wrap;html=1;fontFamily=Comic Sans MS;fillColor=#ffe6cc;strokeColor=#d79b00;rounded=1;sketch=1;curveFitting=1;jiggle=2;strokeWidth=2;fontStyle=1;fontSize=18;" vertex="1" parent="1">
          <mxGeometry x="228" y="3840" width="50" height="50" as="geometry" />
        </mxCell>
        <mxCell id="ZuZpT9G9H3UbYHAg9cP5-506" value="&lt;div style=&quot;text-align: start; font-size: 18px;&quot;&gt;&lt;span style=&quot;font-size: 14px;&quot;&gt;head&lt;/span&gt;&lt;br&gt;&lt;/div&gt;" style="whiteSpace=wrap;html=1;fontFamily=Comic Sans MS;fillColor=#ffe6cc;strokeColor=#d79b00;rounded=1;sketch=1;curveFitting=1;jiggle=2;strokeWidth=2;fontStyle=1;fontSize=18;" vertex="1" parent="1">
          <mxGeometry x="288" y="3840" width="50" height="50" as="geometry" />
        </mxCell>
        <mxCell id="ZuZpT9G9H3UbYHAg9cP5-507" value="&lt;div style=&quot;text-align: start; font-size: 18px;&quot;&gt;&lt;span style=&quot;font-size: 14px;&quot;&gt;head&lt;/span&gt;&lt;br&gt;&lt;/div&gt;" style="whiteSpace=wrap;html=1;fontFamily=Comic Sans MS;fillColor=#ffe6cc;strokeColor=#d79b00;rounded=1;sketch=1;curveFitting=1;jiggle=2;strokeWidth=2;fontStyle=1;fontSize=18;" vertex="1" parent="1">
          <mxGeometry x="348" y="3840" width="50" height="50" as="geometry" />
        </mxCell>
        <mxCell id="ZuZpT9G9H3UbYHAg9cP5-508" value="&lt;div style=&quot;text-align: start; font-size: 18px;&quot;&gt;&lt;span style=&quot;font-size: 14px;&quot;&gt;head&lt;/span&gt;&lt;br&gt;&lt;/div&gt;" style="whiteSpace=wrap;html=1;fontFamily=Comic Sans MS;fillColor=#ffe6cc;strokeColor=#d79b00;rounded=1;sketch=1;curveFitting=1;jiggle=2;strokeWidth=2;fontStyle=1;fontSize=18;" vertex="1" parent="1">
          <mxGeometry x="408" y="3840" width="50" height="50" as="geometry" />
        </mxCell>
        <mxCell id="ZuZpT9G9H3UbYHAg9cP5-509" value="&lt;div style=&quot;text-align: start; font-size: 18px;&quot;&gt;&lt;span style=&quot;font-size: 14px;&quot;&gt;head&lt;/span&gt;&lt;br&gt;&lt;/div&gt;" style="whiteSpace=wrap;html=1;fontFamily=Comic Sans MS;fillColor=#ffe6cc;strokeColor=#d79b00;rounded=1;sketch=1;curveFitting=1;jiggle=2;strokeWidth=2;fontStyle=1;fontSize=18;" vertex="1" parent="1">
          <mxGeometry x="468" y="3840" width="50" height="50" as="geometry" />
        </mxCell>
        <mxCell id="ZuZpT9G9H3UbYHAg9cP5-510" value="&lt;div style=&quot;text-align: start; font-size: 18px;&quot;&gt;&lt;span style=&quot;font-size: 14px;&quot;&gt;head&lt;/span&gt;&lt;br&gt;&lt;/div&gt;" style="whiteSpace=wrap;html=1;fontFamily=Comic Sans MS;fillColor=#ffe6cc;strokeColor=#d79b00;rounded=1;sketch=1;curveFitting=1;jiggle=2;strokeWidth=2;fontStyle=1;fontSize=18;" vertex="1" parent="1">
          <mxGeometry x="528" y="3840" width="50" height="50" as="geometry" />
        </mxCell>
        <mxCell id="ZuZpT9G9H3UbYHAg9cP5-511" value="&lt;div style=&quot;text-align: start; font-size: 18px;&quot;&gt;&lt;span style=&quot;font-size: 14px;&quot;&gt;head&lt;/span&gt;&lt;br&gt;&lt;/div&gt;" style="whiteSpace=wrap;html=1;fontFamily=Comic Sans MS;fillColor=#ffe6cc;strokeColor=#d79b00;rounded=1;sketch=1;curveFitting=1;jiggle=2;strokeWidth=2;fontStyle=1;fontSize=18;" vertex="1" parent="1">
          <mxGeometry x="588" y="3840" width="50" height="50" as="geometry" />
        </mxCell>
        <mxCell id="ZuZpT9G9H3UbYHAg9cP5-512" value="&lt;div style=&quot;text-align: start; font-size: 18px;&quot;&gt;&lt;span style=&quot;font-size: 14px;&quot;&gt;head&lt;/span&gt;&lt;br&gt;&lt;/div&gt;" style="whiteSpace=wrap;html=1;fontFamily=Comic Sans MS;fillColor=#ffe6cc;strokeColor=#d79b00;rounded=1;sketch=1;curveFitting=1;jiggle=2;strokeWidth=2;fontStyle=1;fontSize=18;" vertex="1" parent="1">
          <mxGeometry x="168" y="3898" width="50" height="50" as="geometry" />
        </mxCell>
        <mxCell id="ZuZpT9G9H3UbYHAg9cP5-513" value="&lt;div style=&quot;text-align: start; font-size: 18px;&quot;&gt;&lt;span style=&quot;font-size: 14px;&quot;&gt;head&lt;/span&gt;&lt;br&gt;&lt;/div&gt;" style="whiteSpace=wrap;html=1;fontFamily=Comic Sans MS;fillColor=#ffe6cc;strokeColor=#d79b00;rounded=1;sketch=1;curveFitting=1;jiggle=2;strokeWidth=2;fontStyle=1;fontSize=18;" vertex="1" parent="1">
          <mxGeometry x="228" y="3898" width="50" height="50" as="geometry" />
        </mxCell>
        <mxCell id="ZuZpT9G9H3UbYHAg9cP5-514" value="&lt;div style=&quot;text-align: start; font-size: 18px;&quot;&gt;&lt;span style=&quot;font-size: 14px;&quot;&gt;head&lt;/span&gt;&lt;br&gt;&lt;/div&gt;" style="whiteSpace=wrap;html=1;fontFamily=Comic Sans MS;fillColor=#ffe6cc;strokeColor=#d79b00;rounded=1;sketch=1;curveFitting=1;jiggle=2;strokeWidth=2;fontStyle=1;fontSize=18;" vertex="1" parent="1">
          <mxGeometry x="288" y="3898" width="50" height="50" as="geometry" />
        </mxCell>
        <mxCell id="ZuZpT9G9H3UbYHAg9cP5-515" value="&lt;div style=&quot;text-align: start; font-size: 18px;&quot;&gt;&lt;span style=&quot;font-size: 14px;&quot;&gt;head&lt;/span&gt;&lt;br&gt;&lt;/div&gt;" style="whiteSpace=wrap;html=1;fontFamily=Comic Sans MS;fillColor=#ffe6cc;strokeColor=#d79b00;rounded=1;sketch=1;curveFitting=1;jiggle=2;strokeWidth=2;fontStyle=1;fontSize=18;" vertex="1" parent="1">
          <mxGeometry x="348" y="3898" width="50" height="50" as="geometry" />
        </mxCell>
        <mxCell id="ZuZpT9G9H3UbYHAg9cP5-516" value="&lt;div style=&quot;text-align: start; font-size: 18px;&quot;&gt;&lt;span style=&quot;font-size: 14px;&quot;&gt;head&lt;/span&gt;&lt;br&gt;&lt;/div&gt;" style="whiteSpace=wrap;html=1;fontFamily=Comic Sans MS;fillColor=#ffe6cc;strokeColor=#d79b00;rounded=1;sketch=1;curveFitting=1;jiggle=2;strokeWidth=2;fontStyle=1;fontSize=18;" vertex="1" parent="1">
          <mxGeometry x="408" y="3898" width="50" height="50" as="geometry" />
        </mxCell>
        <mxCell id="ZuZpT9G9H3UbYHAg9cP5-517" value="&lt;div style=&quot;text-align: start; font-size: 18px;&quot;&gt;&lt;span style=&quot;font-size: 14px;&quot;&gt;head&lt;/span&gt;&lt;br&gt;&lt;/div&gt;" style="whiteSpace=wrap;html=1;fontFamily=Comic Sans MS;fillColor=#ffe6cc;strokeColor=#d79b00;rounded=1;sketch=1;curveFitting=1;jiggle=2;strokeWidth=2;fontStyle=1;fontSize=18;" vertex="1" parent="1">
          <mxGeometry x="468" y="3898" width="50" height="50" as="geometry" />
        </mxCell>
        <mxCell id="ZuZpT9G9H3UbYHAg9cP5-518" value="&lt;div style=&quot;text-align: start; font-size: 18px;&quot;&gt;&lt;span style=&quot;font-size: 14px;&quot;&gt;head&lt;/span&gt;&lt;br&gt;&lt;/div&gt;" style="whiteSpace=wrap;html=1;fontFamily=Comic Sans MS;fillColor=#ffe6cc;strokeColor=#d79b00;rounded=1;sketch=1;curveFitting=1;jiggle=2;strokeWidth=2;fontStyle=1;fontSize=18;" vertex="1" parent="1">
          <mxGeometry x="528" y="3898" width="50" height="50" as="geometry" />
        </mxCell>
        <mxCell id="ZuZpT9G9H3UbYHAg9cP5-519" value="&lt;div style=&quot;text-align: start; font-size: 18px;&quot;&gt;&lt;span style=&quot;font-size: 14px;&quot;&gt;head&lt;/span&gt;&lt;br&gt;&lt;/div&gt;" style="whiteSpace=wrap;html=1;fontFamily=Comic Sans MS;fillColor=#ffe6cc;strokeColor=#d79b00;rounded=1;sketch=1;curveFitting=1;jiggle=2;strokeWidth=2;fontStyle=1;fontSize=18;" vertex="1" parent="1">
          <mxGeometry x="588" y="3898" width="50" height="50" as="geometry" />
        </mxCell>
        <mxCell id="ZuZpT9G9H3UbYHAg9cP5-520" value="&lt;div style=&quot;text-align: start; font-size: 18px;&quot;&gt;&lt;span style=&quot;font-size: 14px;&quot;&gt;head&lt;/span&gt;&lt;br&gt;&lt;/div&gt;" style="whiteSpace=wrap;html=1;fontFamily=Comic Sans MS;fillColor=#ffe6cc;strokeColor=#d79b00;rounded=1;sketch=1;curveFitting=1;jiggle=2;strokeWidth=2;fontStyle=1;fontSize=18;" vertex="1" parent="1">
          <mxGeometry x="168" y="3960" width="50" height="50" as="geometry" />
        </mxCell>
        <mxCell id="ZuZpT9G9H3UbYHAg9cP5-521" value="&lt;div style=&quot;text-align: start; font-size: 18px;&quot;&gt;&lt;span style=&quot;font-size: 14px;&quot;&gt;head&lt;/span&gt;&lt;br&gt;&lt;/div&gt;" style="whiteSpace=wrap;html=1;fontFamily=Comic Sans MS;fillColor=#ffe6cc;strokeColor=#d79b00;rounded=1;sketch=1;curveFitting=1;jiggle=2;strokeWidth=2;fontStyle=1;fontSize=18;" vertex="1" parent="1">
          <mxGeometry x="228" y="3960" width="50" height="50" as="geometry" />
        </mxCell>
        <mxCell id="ZuZpT9G9H3UbYHAg9cP5-522" value="&lt;div style=&quot;text-align: start; font-size: 18px;&quot;&gt;&lt;span style=&quot;font-size: 14px;&quot;&gt;head&lt;/span&gt;&lt;br&gt;&lt;/div&gt;" style="whiteSpace=wrap;html=1;fontFamily=Comic Sans MS;fillColor=#ffe6cc;strokeColor=#d79b00;rounded=1;sketch=1;curveFitting=1;jiggle=2;strokeWidth=2;fontStyle=1;fontSize=18;" vertex="1" parent="1">
          <mxGeometry x="288" y="3960" width="50" height="50" as="geometry" />
        </mxCell>
        <mxCell id="ZuZpT9G9H3UbYHAg9cP5-523" value="&lt;div style=&quot;text-align: start; font-size: 18px;&quot;&gt;&lt;span style=&quot;font-size: 14px;&quot;&gt;head&lt;/span&gt;&lt;br&gt;&lt;/div&gt;" style="whiteSpace=wrap;html=1;fontFamily=Comic Sans MS;fillColor=#ffe6cc;strokeColor=#d79b00;rounded=1;sketch=1;curveFitting=1;jiggle=2;strokeWidth=2;fontStyle=1;fontSize=18;" vertex="1" parent="1">
          <mxGeometry x="348" y="3960" width="50" height="50" as="geometry" />
        </mxCell>
        <mxCell id="ZuZpT9G9H3UbYHAg9cP5-524" value="&lt;div style=&quot;text-align: start; font-size: 18px;&quot;&gt;&lt;span style=&quot;font-size: 14px;&quot;&gt;head&lt;/span&gt;&lt;br&gt;&lt;/div&gt;" style="whiteSpace=wrap;html=1;fontFamily=Comic Sans MS;fillColor=#ffe6cc;strokeColor=#d79b00;rounded=1;sketch=1;curveFitting=1;jiggle=2;strokeWidth=2;fontStyle=1;fontSize=18;" vertex="1" parent="1">
          <mxGeometry x="408" y="3960" width="50" height="50" as="geometry" />
        </mxCell>
        <mxCell id="ZuZpT9G9H3UbYHAg9cP5-525" value="&lt;div style=&quot;text-align: start; font-size: 18px;&quot;&gt;&lt;span style=&quot;font-size: 14px;&quot;&gt;head&lt;/span&gt;&lt;br&gt;&lt;/div&gt;" style="whiteSpace=wrap;html=1;fontFamily=Comic Sans MS;fillColor=#ffe6cc;strokeColor=#d79b00;rounded=1;sketch=1;curveFitting=1;jiggle=2;strokeWidth=2;fontStyle=1;fontSize=18;" vertex="1" parent="1">
          <mxGeometry x="468" y="3960" width="50" height="50" as="geometry" />
        </mxCell>
        <mxCell id="ZuZpT9G9H3UbYHAg9cP5-526" value="&lt;div style=&quot;text-align: start; font-size: 18px;&quot;&gt;&lt;span style=&quot;font-size: 14px;&quot;&gt;head&lt;/span&gt;&lt;br&gt;&lt;/div&gt;" style="whiteSpace=wrap;html=1;fontFamily=Comic Sans MS;fillColor=#ffe6cc;strokeColor=#d79b00;rounded=1;sketch=1;curveFitting=1;jiggle=2;strokeWidth=2;fontStyle=1;fontSize=18;" vertex="1" parent="1">
          <mxGeometry x="528" y="3960" width="50" height="50" as="geometry" />
        </mxCell>
        <mxCell id="ZuZpT9G9H3UbYHAg9cP5-527" value="&lt;div style=&quot;text-align: start; font-size: 18px;&quot;&gt;&lt;span style=&quot;font-size: 14px;&quot;&gt;head&lt;/span&gt;&lt;br&gt;&lt;/div&gt;" style="whiteSpace=wrap;html=1;fontFamily=Comic Sans MS;fillColor=#ffe6cc;strokeColor=#d79b00;rounded=1;sketch=1;curveFitting=1;jiggle=2;strokeWidth=2;fontStyle=1;fontSize=18;" vertex="1" parent="1">
          <mxGeometry x="588" y="3960" width="50" height="50" as="geometry" />
        </mxCell>
        <mxCell id="ZuZpT9G9H3UbYHAg9cP5-528" value="&lt;div style=&quot;text-align: start; font-size: 18px;&quot;&gt;skip&lt;/div&gt;" style="whiteSpace=wrap;html=1;fontFamily=Comic Sans MS;fillColor=#e1d5e7;strokeColor=#9673a6;rounded=1;strokeWidth=2;fontStyle=1;fontSize=18;sketch=1;curveFitting=1;jiggle=2;" vertex="1" parent="1">
          <mxGeometry x="1346.1399999999999" y="3565" width="88.23" height="80" as="geometry" />
        </mxCell>
        <mxCell id="ZuZpT9G9H3UbYHAg9cP5-529" value="&lt;div style=&quot;text-align: start; font-size: 18px;&quot;&gt;skip&lt;/div&gt;" style="whiteSpace=wrap;html=1;fontFamily=Comic Sans MS;fillColor=#e1d5e7;strokeColor=#9673a6;rounded=1;strokeWidth=2;fontStyle=1;fontSize=18;sketch=1;curveFitting=1;jiggle=2;" vertex="1" parent="1">
          <mxGeometry x="1447.49" y="3565" width="88.23" height="80" as="geometry" />
        </mxCell>
        <mxCell id="ZuZpT9G9H3UbYHAg9cP5-530" value="&lt;div style=&quot;text-align: start; font-size: 18px;&quot;&gt;skip&lt;/div&gt;" style="whiteSpace=wrap;html=1;fontFamily=Comic Sans MS;fillColor=#e1d5e7;strokeColor=#9673a6;rounded=1;strokeWidth=2;fontStyle=1;fontSize=18;sketch=1;curveFitting=1;jiggle=2;" vertex="1" parent="1">
          <mxGeometry x="1547.49" y="3565" width="88.23" height="80" as="geometry" />
        </mxCell>
        <mxCell id="ZuZpT9G9H3UbYHAg9cP5-531" value="&lt;div style=&quot;text-align: start; font-size: 18px;&quot;&gt;skip&lt;/div&gt;" style="whiteSpace=wrap;html=1;fontFamily=Comic Sans MS;fillColor=#e1d5e7;strokeColor=#9673a6;rounded=1;strokeWidth=2;fontStyle=1;fontSize=18;sketch=1;curveFitting=1;jiggle=2;" vertex="1" parent="1">
          <mxGeometry x="1241.8799999999999" y="3655" width="88.23" height="80" as="geometry" />
        </mxCell>
        <mxCell id="ZuZpT9G9H3UbYHAg9cP5-532" value="&lt;div style=&quot;text-align: start; font-size: 18px;&quot;&gt;skip&lt;/div&gt;" style="whiteSpace=wrap;html=1;fontFamily=Comic Sans MS;fillColor=#e1d5e7;strokeColor=#9673a6;rounded=1;strokeWidth=2;fontStyle=1;fontSize=18;sketch=1;curveFitting=1;jiggle=2;" vertex="1" parent="1">
          <mxGeometry x="1346.1399999999999" y="3655" width="88.23" height="80" as="geometry" />
        </mxCell>
        <mxCell id="ZuZpT9G9H3UbYHAg9cP5-533" value="&lt;div style=&quot;text-align: start; font-size: 18px;&quot;&gt;skip&lt;/div&gt;" style="whiteSpace=wrap;html=1;fontFamily=Comic Sans MS;fillColor=#e1d5e7;strokeColor=#9673a6;rounded=1;strokeWidth=2;fontStyle=1;fontSize=18;sketch=1;curveFitting=1;jiggle=2;" vertex="1" parent="1">
          <mxGeometry x="1447.49" y="3655" width="88.23" height="80" as="geometry" />
        </mxCell>
        <mxCell id="ZuZpT9G9H3UbYHAg9cP5-534" value="&lt;div style=&quot;text-align: start; font-size: 18px;&quot;&gt;skip&lt;/div&gt;" style="whiteSpace=wrap;html=1;fontFamily=Comic Sans MS;fillColor=#e1d5e7;strokeColor=#9673a6;rounded=1;strokeWidth=2;fontStyle=1;fontSize=18;sketch=1;curveFitting=1;jiggle=2;" vertex="1" parent="1">
          <mxGeometry x="1547.49" y="3655" width="88.23" height="80" as="geometry" />
        </mxCell>
        <mxCell id="ZuZpT9G9H3UbYHAg9cP5-535" value="&lt;div style=&quot;text-align: start; font-size: 18px;&quot;&gt;&lt;div style=&quot;font-size: 13px;&quot;&gt;KV &amp;lt;- from&amp;nbsp;&lt;/div&gt;&lt;div style=&quot;font-size: 13px;&quot;&gt;prefix cache&lt;/div&gt;&lt;/div&gt;" style="whiteSpace=wrap;html=1;fontFamily=Comic Sans MS;fillColor=#dae8fc;strokeColor=#6c8ebf;rounded=1;strokeWidth=2;fontStyle=1;fontSize=18;dashed=1;" vertex="1" parent="1">
          <mxGeometry x="1241.8799999999999" y="3755" width="88.23" height="80" as="geometry" />
        </mxCell>
        <mxCell id="ZuZpT9G9H3UbYHAg9cP5-537" value="&lt;div style=&quot;text-align: start; font-size: 18px;&quot;&gt;&lt;div style=&quot;font-size: 13px;&quot;&gt;KV &amp;lt;- from&amp;nbsp;&lt;/div&gt;&lt;div style=&quot;font-size: 13px;&quot;&gt;prefix cache&lt;/div&gt;&lt;/div&gt;" style="whiteSpace=wrap;html=1;fontFamily=Comic Sans MS;fillColor=#dae8fc;strokeColor=#6c8ebf;rounded=1;strokeWidth=2;fontStyle=1;fontSize=18;sketch=1;curveFitting=1;jiggle=2;" vertex="1" parent="1">
          <mxGeometry x="1346.1399999999999" y="3755" width="88.23" height="80" as="geometry" />
        </mxCell>
        <mxCell id="ZuZpT9G9H3UbYHAg9cP5-538" value="&lt;div style=&quot;text-align: start; font-size: 13px;&quot;&gt;&lt;div style=&quot;font-size: 13px;&quot;&gt;New&lt;/div&gt;&lt;div style=&quot;font-size: 13px;&quot;&gt;KV Cache&lt;/div&gt;&lt;/div&gt;" style="whiteSpace=wrap;html=1;fontFamily=Comic Sans MS;fillColor=#d5e8d4;strokeColor=#82b366;rounded=1;strokeWidth=2;fontStyle=1;fontSize=13;sketch=1;curveFitting=1;jiggle=2;" vertex="1" parent="1">
          <mxGeometry x="1447.49" y="3755" width="88.23" height="80" as="geometry" />
        </mxCell>
        <mxCell id="ZuZpT9G9H3UbYHAg9cP5-548" style="rounded=0;orthogonalLoop=1;jettySize=auto;html=1;exitX=1;exitY=0.5;exitDx=0;exitDy=0;entryX=0;entryY=0.5;entryDx=0;entryDy=0;strokeWidth=3;sketch=1;curveFitting=1;jiggle=2;" edge="1" parent="1" source="ZuZpT9G9H3UbYHAg9cP5-539" target="ZuZpT9G9H3UbYHAg9cP5-545">
          <mxGeometry relative="1" as="geometry" />
        </mxCell>
        <mxCell id="ZuZpT9G9H3UbYHAg9cP5-539" value="&lt;div style=&quot;text-align: start; font-size: 13px;&quot;&gt;&lt;div style=&quot;font-size: 13px;&quot;&gt;&lt;div style=&quot;font-size: 13px;&quot;&gt;&lt;span style=&quot;font-size: 13px;&quot;&gt;New&lt;/span&gt;&lt;/div&gt;&lt;div style=&quot;font-size: 13px;&quot;&gt;&lt;span style=&quot;font-size: 13px;&quot;&gt;KV Cache&lt;/span&gt;&lt;br style=&quot;font-size: 13px;&quot;&gt;&lt;/div&gt;&lt;/div&gt;&lt;/div&gt;" style="whiteSpace=wrap;html=1;fontFamily=Comic Sans MS;fillColor=#d5e8d4;strokeColor=#82b366;rounded=1;strokeWidth=2;fontStyle=1;fontSize=13;sketch=1;curveFitting=1;jiggle=2;" vertex="1" parent="1">
          <mxGeometry x="1547.49" y="3755" width="88.23" height="80" as="geometry" />
        </mxCell>
        <mxCell id="ZuZpT9G9H3UbYHAg9cP5-540" value="&lt;div style=&quot;text-align: start; font-size: 18px;&quot;&gt;&lt;div style=&quot;font-size: 13px;&quot;&gt;KV &amp;lt;- from&amp;nbsp;&lt;/div&gt;&lt;div style=&quot;font-size: 13px;&quot;&gt;prefix cache&lt;/div&gt;&lt;/div&gt;" style="whiteSpace=wrap;html=1;fontFamily=Comic Sans MS;fillColor=#dae8fc;strokeColor=#6c8ebf;rounded=1;strokeWidth=2;fontStyle=1;fontSize=18;sketch=1;curveFitting=1;jiggle=2;" vertex="1" parent="1">
          <mxGeometry x="1241.8799999999999" y="3845" width="88.23" height="80" as="geometry" />
        </mxCell>
        <mxCell id="ZuZpT9G9H3UbYHAg9cP5-541" value="&lt;div style=&quot;text-align: start; font-size: 18px;&quot;&gt;&lt;div style=&quot;font-size: 13px;&quot;&gt;KV &amp;lt;- from&amp;nbsp;&lt;/div&gt;&lt;div style=&quot;font-size: 13px;&quot;&gt;prefix cache&lt;/div&gt;&lt;/div&gt;" style="whiteSpace=wrap;html=1;fontFamily=Comic Sans MS;fillColor=#dae8fc;strokeColor=#6c8ebf;rounded=1;strokeWidth=2;fontStyle=1;fontSize=18;sketch=1;curveFitting=1;jiggle=2;" vertex="1" parent="1">
          <mxGeometry x="1346.1399999999999" y="3845" width="88.23" height="80" as="geometry" />
        </mxCell>
        <mxCell id="ZuZpT9G9H3UbYHAg9cP5-542" value="&lt;div style=&quot;text-align: start; font-size: 13px;&quot;&gt;&lt;div style=&quot;font-size: 13px;&quot;&gt;&lt;span style=&quot;font-size: 13px;&quot;&gt;New&lt;/span&gt;&lt;/div&gt;&lt;div style=&quot;font-size: 13px;&quot;&gt;&lt;span style=&quot;font-size: 13px;&quot;&gt;KV Cache&lt;/span&gt;&lt;br style=&quot;font-size: 13px;&quot;&gt;&lt;/div&gt;&lt;/div&gt;" style="whiteSpace=wrap;html=1;fontFamily=Comic Sans MS;fillColor=#d5e8d4;strokeColor=#82b366;rounded=1;strokeWidth=2;fontStyle=1;fontSize=13;sketch=1;curveFitting=1;jiggle=2;" vertex="1" parent="1">
          <mxGeometry x="1447.49" y="3845" width="88.23" height="80" as="geometry" />
        </mxCell>
        <mxCell id="ZuZpT9G9H3UbYHAg9cP5-549" style="rounded=0;orthogonalLoop=1;jettySize=auto;html=1;exitX=1;exitY=0.5;exitDx=0;exitDy=0;strokeWidth=3;sketch=1;curveFitting=1;jiggle=2;" edge="1" parent="1" source="ZuZpT9G9H3UbYHAg9cP5-543" target="ZuZpT9G9H3UbYHAg9cP5-546">
          <mxGeometry relative="1" as="geometry" />
        </mxCell>
        <mxCell id="ZuZpT9G9H3UbYHAg9cP5-543" value="&lt;div style=&quot;text-align: start; font-size: 13px;&quot;&gt;&lt;div style=&quot;font-size: 13px;&quot;&gt;&lt;span style=&quot;font-size: 13px;&quot;&gt;New&lt;/span&gt;&lt;/div&gt;&lt;div style=&quot;font-size: 13px;&quot;&gt;&lt;span style=&quot;font-size: 13px;&quot;&gt;KV Cache&lt;/span&gt;&lt;br style=&quot;font-size: 13px;&quot;&gt;&lt;/div&gt;&lt;/div&gt;" style="whiteSpace=wrap;html=1;fontFamily=Comic Sans MS;fillColor=#d5e8d4;strokeColor=#82b366;rounded=1;strokeWidth=2;fontStyle=1;fontSize=13;sketch=1;curveFitting=1;jiggle=2;" vertex="1" parent="1">
          <mxGeometry x="1547.49" y="3845" width="88.23" height="80" as="geometry" />
        </mxCell>
        <mxCell id="ZuZpT9G9H3UbYHAg9cP5-544" value="Grid=(batch, heads, max_input_len/BLOCK)&lt;div&gt;(8,8,1024/128=8)&lt;/div&gt;" style="text;html=1;align=center;verticalAlign=middle;resizable=0;points=[];autosize=1;strokeColor=#82b366;fillColor=#d5e8d4;sketch=1;curveFitting=1;jiggle=2;strokeWidth=1;fontFamily=Comic Sans MS;fontSize=15;" vertex="1" parent="1">
          <mxGeometry x="218" y="4025" width="330" height="50" as="geometry" />
        </mxCell>
        <mxCell id="KSI9k0JgUmXzMZMYq2L--58" style="edgeStyle=orthogonalEdgeStyle;rounded=0;sketch=1;hachureGap=4;jiggle=2;curveFitting=1;orthogonalLoop=1;jettySize=auto;html=1;fontFamily=Architects Daughter;fontSource=https%3A%2F%2Ffonts.googleapis.com%2Fcss%3Ffamily%3DArchitects%2BDaughter;curved=1;strokeWidth=2;entryX=0.5;entryY=1;entryDx=0;entryDy=0;" edge="1" parent="1" source="ZuZpT9G9H3UbYHAg9cP5-545" target="KSI9k0JgUmXzMZMYq2L--15">
          <mxGeometry relative="1" as="geometry">
            <mxPoint x="2009.3" y="3790" as="sourcePoint" />
            <mxPoint x="1676.4199999999998" y="4535" as="targetPoint" />
            <Array as="points">
              <mxPoint x="2030" y="3790" />
              <mxPoint x="2030" y="4600" />
              <mxPoint x="1191" y="4600" />
            </Array>
          </mxGeometry>
        </mxCell>
        <mxCell id="ZuZpT9G9H3UbYHAg9cP5-545" value="&lt;div style=&quot;text-align: start; font-size: 13px;&quot;&gt;&lt;div style=&quot;font-size: 13px;&quot;&gt;&lt;div style=&quot;font-size: 13px;&quot;&gt;O[:(New Tokens)/2, D]&lt;/div&gt;&lt;/div&gt;&lt;/div&gt;" style="whiteSpace=wrap;html=1;fontFamily=Comic Sans MS;fillColor=#d5e8d4;strokeColor=#82b366;rounded=1;strokeWidth=2;fontStyle=1;fontSize=13;sketch=1;curveFitting=1;jiggle=2;" vertex="1" parent="1">
          <mxGeometry x="1770" y="3755" width="200" height="80" as="geometry" />
        </mxCell>
        <mxCell id="KSI9k0JgUmXzMZMYq2L--57" style="edgeStyle=orthogonalEdgeStyle;rounded=0;sketch=1;hachureGap=4;jiggle=2;curveFitting=1;orthogonalLoop=1;jettySize=auto;html=1;exitX=1;exitY=0.5;exitDx=0;exitDy=0;fontFamily=Architects Daughter;fontSource=https%3A%2F%2Ffonts.googleapis.com%2Fcss%3Ffamily%3DArchitects%2BDaughter;curved=1;strokeWidth=2;entryX=0.75;entryY=1;entryDx=0;entryDy=0;" edge="1" parent="1" source="ZuZpT9G9H3UbYHAg9cP5-546" target="KSI9k0JgUmXzMZMYq2L--12">
          <mxGeometry relative="1" as="geometry">
            <Array as="points">
              <mxPoint x="1990" y="3885" />
              <mxPoint x="1990" y="4670" />
              <mxPoint x="1021" y="4670" />
              <mxPoint x="1021" y="4523" />
            </Array>
          </mxGeometry>
        </mxCell>
        <mxCell id="ZuZpT9G9H3UbYHAg9cP5-546" value="&lt;div style=&quot;text-align: start; font-size: 13px;&quot;&gt;&lt;div style=&quot;font-size: 13px;&quot;&gt;&lt;div style=&quot;font-size: 13px;&quot;&gt;O[(New Tokens)/2:, D]&lt;/div&gt;&lt;/div&gt;&lt;/div&gt;" style="whiteSpace=wrap;html=1;fontFamily=Comic Sans MS;fillColor=#d5e8d4;strokeColor=#82b366;rounded=1;strokeWidth=2;fontStyle=1;fontSize=13;sketch=1;curveFitting=1;jiggle=2;" vertex="1" parent="1">
          <mxGeometry x="1770" y="3845" width="200" height="80" as="geometry" />
        </mxCell>
        <mxCell id="ZuZpT9G9H3UbYHAg9cP5-547" value="D=head size" style="text;html=1;align=center;verticalAlign=middle;resizable=0;points=[];autosize=1;strokeColor=default;sketch=1;curveFitting=1;jiggle=2;fontFamily=Comic Sans MS;fontStyle=1" vertex="1" parent="1">
          <mxGeometry x="1825" y="3942.5" width="90" height="30" as="geometry" />
        </mxCell>
        <mxCell id="KSI9k0JgUmXzMZMYq2L--1" value="" style="whiteSpace=wrap;html=1;aspect=fixed;fillColor=#dae8fc;strokeColor=#6c8ebf;sketch=1;curveFitting=1;jiggle=2;" vertex="1" parent="1">
          <mxGeometry x="277.32000000000005" y="4382.5" width="60" height="60" as="geometry" />
        </mxCell>
        <mxCell id="KSI9k0JgUmXzMZMYq2L--2" value="" style="whiteSpace=wrap;html=1;aspect=fixed;fillColor=#dae8fc;strokeColor=#6c8ebf;sketch=1;curveFitting=1;jiggle=2;" vertex="1" parent="1">
          <mxGeometry x="337.32000000000005" y="4382.5" width="60" height="60" as="geometry" />
        </mxCell>
        <mxCell id="KSI9k0JgUmXzMZMYq2L--3" value="" style="whiteSpace=wrap;html=1;aspect=fixed;fillColor=#dae8fc;strokeColor=#6c8ebf;sketch=1;curveFitting=1;jiggle=2;" vertex="1" parent="1">
          <mxGeometry x="397.32000000000005" y="4382.5" width="60" height="60" as="geometry" />
        </mxCell>
        <mxCell id="KSI9k0JgUmXzMZMYq2L--52" style="rounded=0;orthogonalLoop=1;jettySize=auto;html=1;exitX=1;exitY=0.5;exitDx=0;exitDy=0;entryX=0;entryY=0.5;entryDx=0;entryDy=0;sketch=1;curveFitting=1;jiggle=2;strokeWidth=2;" edge="1" parent="1" source="KSI9k0JgUmXzMZMYq2L--6" target="KSI9k0JgUmXzMZMYq2L--8">
          <mxGeometry relative="1" as="geometry" />
        </mxCell>
        <mxCell id="KSI9k0JgUmXzMZMYq2L--6" value="" style="whiteSpace=wrap;html=1;aspect=fixed;fillColor=#dae8fc;strokeColor=#6c8ebf;sketch=1;curveFitting=1;jiggle=2;" vertex="1" parent="1">
          <mxGeometry x="517.32" y="4382.5" width="60" height="60" as="geometry" />
        </mxCell>
        <mxCell id="KSI9k0JgUmXzMZMYq2L--8" value="" style="whiteSpace=wrap;html=1;aspect=fixed;fillColor=#ffe6cc;strokeColor=#d79b00;" vertex="1" parent="1">
          <mxGeometry x="981.22" y="4282.5" width="60" height="60" as="geometry" />
        </mxCell>
        <mxCell id="KSI9k0JgUmXzMZMYq2L--9" value="" style="whiteSpace=wrap;html=1;aspect=fixed;fillColor=#ffe6cc;strokeColor=#d79b00;" vertex="1" parent="1">
          <mxGeometry x="1041.22" y="4282.5" width="60" height="60" as="geometry" />
        </mxCell>
        <mxCell id="KSI9k0JgUmXzMZMYq2L--10" value="" style="whiteSpace=wrap;html=1;aspect=fixed;fillColor=#ffe6cc;strokeColor=#d79b00;" vertex="1" parent="1">
          <mxGeometry x="1161.22" y="4282.5" width="60" height="60" as="geometry" />
        </mxCell>
        <mxCell id="KSI9k0JgUmXzMZMYq2L--11" value="" style="whiteSpace=wrap;html=1;aspect=fixed;fillColor=#e1d5e7;strokeColor=#9673a6;sketch=1;curveFitting=1;jiggle=2;" vertex="1" parent="1">
          <mxGeometry x="921.22" y="4462.5" width="60" height="60" as="geometry" />
        </mxCell>
        <mxCell id="KSI9k0JgUmXzMZMYq2L--12" value="" style="whiteSpace=wrap;html=1;aspect=fixed;fillColor=#d5e8d4;strokeColor=#82b366;" vertex="1" parent="1">
          <mxGeometry x="981.22" y="4462.5" width="60" height="60" as="geometry" />
        </mxCell>
        <mxCell id="KSI9k0JgUmXzMZMYq2L--13" value="" style="whiteSpace=wrap;html=1;aspect=fixed;fillColor=#d5e8d4;strokeColor=#82b366;" vertex="1" parent="1">
          <mxGeometry x="1041.22" y="4462.5" width="60" height="60" as="geometry" />
        </mxCell>
        <mxCell id="KSI9k0JgUmXzMZMYq2L--14" style="rounded=0;sketch=1;hachureGap=4;jiggle=2;curveFitting=1;orthogonalLoop=1;jettySize=auto;html=1;exitX=1;exitY=0.5;exitDx=0;exitDy=0;entryX=0;entryY=0.5;entryDx=0;entryDy=0;fontFamily=Architects Daughter;fontSource=https%3A%2F%2Ffonts.googleapis.com%2Fcss%3Ffamily%3DArchitects%2BDaughter;" edge="1" parent="1" source="KSI9k0JgUmXzMZMYq2L--15" target="KSI9k0JgUmXzMZMYq2L--17">
          <mxGeometry relative="1" as="geometry" />
        </mxCell>
        <mxCell id="KSI9k0JgUmXzMZMYq2L--15" value="" style="whiteSpace=wrap;html=1;aspect=fixed;fillColor=#d5e8d4;strokeColor=#82b366;" vertex="1" parent="1">
          <mxGeometry x="1161.22" y="4462.5" width="60" height="60" as="geometry" />
        </mxCell>
        <mxCell id="KSI9k0JgUmXzMZMYq2L--16" style="edgeStyle=orthogonalEdgeStyle;rounded=0;sketch=1;hachureGap=4;jiggle=2;curveFitting=1;orthogonalLoop=1;jettySize=auto;html=1;exitX=1;exitY=0.5;exitDx=0;exitDy=0;fontFamily=Architects Daughter;fontSource=https%3A%2F%2Ffonts.googleapis.com%2Fcss%3Ffamily%3DArchitects%2BDaughter;" edge="1" parent="1" source="KSI9k0JgUmXzMZMYq2L--17" target="KSI9k0JgUmXzMZMYq2L--18">
          <mxGeometry relative="1" as="geometry" />
        </mxCell>
        <mxCell id="KSI9k0JgUmXzMZMYq2L--17" value="" style="whiteSpace=wrap;html=1;aspect=fixed;fillColor=#f8cecc;strokeColor=#b85450;" vertex="1" parent="1">
          <mxGeometry x="1281.22" y="4372.5" width="60" height="60" as="geometry" />
        </mxCell>
        <mxCell id="KSI9k0JgUmXzMZMYq2L--18" value="进入&lt;div&gt;&lt;b&gt;Generate&lt;/b&gt;&lt;span style=&quot;background-color: initial;&quot;&gt;阶段&lt;/span&gt;&lt;/div&gt;" style="whiteSpace=wrap;html=1;aspect=fixed;fillColor=#f8cecc;strokeColor=#b85450;fontSize=17;sketch=1;curveFitting=1;jiggle=2;fontFamily=Comic Sans MS;" vertex="1" parent="1">
          <mxGeometry x="1401.22" y="4332.5" width="140" height="140" as="geometry" />
        </mxCell>
        <mxCell id="KSI9k0JgUmXzMZMYq2L--19" value="......" style="text;html=1;align=center;verticalAlign=middle;resizable=0;points=[];autosize=1;strokeColor=none;fillColor=none;fontSize=15;fontFamily=Comic Sans MS;fontStyle=1" vertex="1" parent="1">
          <mxGeometry x="457.32000000000005" y="4397.5" width="50" height="30" as="geometry" />
        </mxCell>
        <mxCell id="KSI9k0JgUmXzMZMYq2L--20" value="......" style="text;html=1;align=center;verticalAlign=middle;resizable=0;points=[];autosize=1;strokeColor=none;fillColor=none;fontSize=15;fontFamily=Comic Sans MS;fontStyle=1" vertex="1" parent="1">
          <mxGeometry x="1101.22" y="4297.5" width="50" height="30" as="geometry" />
        </mxCell>
        <mxCell id="KSI9k0JgUmXzMZMYq2L--21" value="......" style="text;html=1;align=center;verticalAlign=middle;resizable=0;points=[];autosize=1;strokeColor=none;fillColor=none;fontSize=15;fontFamily=Comic Sans MS;fontStyle=1" vertex="1" parent="1">
          <mxGeometry x="1101.22" y="4482.5" width="50" height="30" as="geometry" />
        </mxCell>
        <mxCell id="KSI9k0JgUmXzMZMYq2L--22" value="" style="shape=curlyBracket;whiteSpace=wrap;html=1;rounded=1;flipH=1;labelPosition=right;verticalLabelPosition=middle;align=left;verticalAlign=middle;rotation=-90;sketch=1;curveFitting=1;jiggle=2;strokeWidth=2;" vertex="1" parent="1">
          <mxGeometry x="355.5" y="4149.77" width="16.6" height="412.05" as="geometry" />
        </mxCell>
        <mxCell id="KSI9k0JgUmXzMZMYq2L--23" value="Prompt tokens" style="text;html=1;align=center;verticalAlign=middle;resizable=0;points=[];autosize=1;strokeColor=none;fillColor=none;fontSize=15;fontFamily=Comic Sans MS;" vertex="1" parent="1">
          <mxGeometry x="291.97" y="4302.5" width="120" height="30" as="geometry" />
        </mxCell>
        <mxCell id="KSI9k0JgUmXzMZMYq2L--24" value="生成 New Query&amp;nbsp;&lt;div&gt;vector&lt;/div&gt;" style="text;html=1;align=center;verticalAlign=middle;resizable=0;points=[];autosize=1;strokeColor=none;fillColor=none;fontSize=15;fontFamily=Comic Sans MS;" vertex="1" parent="1">
          <mxGeometry x="730.72" y="4287.5" width="140" height="50" as="geometry" />
        </mxCell>
        <mxCell id="KSI9k0JgUmXzMZMYq2L--25" value="生成 New KV Cache" style="text;html=1;align=center;verticalAlign=middle;resizable=0;points=[];autosize=1;strokeColor=none;fillColor=none;fontSize=15;fontFamily=Comic Sans MS;" vertex="1" parent="1">
          <mxGeometry x="757.6" y="4397.5" width="160" height="30" as="geometry" />
        </mxCell>
        <mxCell id="KSI9k0JgUmXzMZMYq2L--26" value="" style="shape=curlyBracket;whiteSpace=wrap;html=1;rounded=1;flipH=1;labelPosition=right;verticalLabelPosition=middle;align=left;verticalAlign=middle;rotation=-90;sketch=1;curveFitting=1;jiggle=2;strokeWidth=2;" vertex="1" parent="1">
          <mxGeometry x="1084.72" y="4140" width="25" height="235" as="geometry" />
        </mxCell>
        <mxCell id="KSI9k0JgUmXzMZMYq2L--27" value="&lt;b&gt;Query &lt;/b&gt;vector of&amp;nbsp;&lt;div&gt;New Prompt tokens&lt;/div&gt;" style="text;html=1;align=center;verticalAlign=middle;resizable=0;points=[];autosize=1;strokeColor=none;fillColor=none;fontSize=15;fontFamily=Comic Sans MS;" vertex="1" parent="1">
          <mxGeometry x="1009.1000000000001" y="4192.5" width="160" height="50" as="geometry" />
        </mxCell>
        <mxCell id="KSI9k0JgUmXzMZMYq2L--28" value="" style="shape=curlyBracket;whiteSpace=wrap;html=1;rounded=1;flipH=1;labelPosition=right;verticalLabelPosition=middle;align=left;verticalAlign=middle;rotation=90;sketch=1;curveFitting=1;jiggle=2;strokeWidth=2;" vertex="1" parent="1">
          <mxGeometry x="1091.97" y="4434.25" width="8.5" height="230" as="geometry" />
        </mxCell>
        <mxCell id="KSI9k0JgUmXzMZMYq2L--29" value="&lt;b&gt;KV Cache&lt;/b&gt; of&amp;nbsp;&lt;div&gt;New Prompt tokens&lt;/div&gt;" style="text;html=1;align=center;verticalAlign=middle;resizable=0;points=[];autosize=1;strokeColor=none;fillColor=none;fontSize=15;fontFamily=Comic Sans MS;" vertex="1" parent="1">
          <mxGeometry x="1022.22" y="4562.5" width="160" height="50" as="geometry" />
        </mxCell>
        <mxCell id="KSI9k0JgUmXzMZMYq2L--30" value="生成 First token" style="text;html=1;align=center;verticalAlign=middle;resizable=0;points=[];autosize=1;strokeColor=none;fillColor=none;fontSize=15;fontFamily=Comic Sans MS;" vertex="1" parent="1">
          <mxGeometry x="1121.22" y="4387.5" width="140" height="30" as="geometry" />
        </mxCell>
        <mxCell id="KSI9k0JgUmXzMZMYq2L--31" style="rounded=0;sketch=1;hachureGap=4;jiggle=2;curveFitting=1;orthogonalLoop=1;jettySize=auto;html=1;exitX=1;exitY=0.5;exitDx=0;exitDy=0;entryX=-0.017;entryY=0.617;entryDx=0;entryDy=0;entryPerimeter=0;fontFamily=Architects Daughter;fontSource=https%3A%2F%2Ffonts.googleapis.com%2Fcss%3Ffamily%3DArchitects%2BDaughter;" edge="1" parent="1" source="KSI9k0JgUmXzMZMYq2L--10" target="KSI9k0JgUmXzMZMYq2L--17">
          <mxGeometry relative="1" as="geometry" />
        </mxCell>
        <mxCell id="KSI9k0JgUmXzMZMYq2L--32" value="First token" style="text;html=1;align=center;verticalAlign=middle;resizable=0;points=[];autosize=1;strokeColor=default;fillColor=none;fontSize=15;fontFamily=Comic Sans MS;sketch=1;curveFitting=1;jiggle=2;" vertex="1" parent="1">
          <mxGeometry x="1261.22" y="4442.5" width="100" height="30" as="geometry" />
        </mxCell>
        <mxCell id="KSI9k0JgUmXzMZMYq2L--33" value="Prefill阶段" style="text;html=1;align=center;verticalAlign=middle;resizable=0;points=[];autosize=1;strokeColor=#6c8ebf;fillColor=#dae8fc;fontFamily=Comic Sans MS;fontSize=20;sketch=1;curveFitting=1;jiggle=2;fontStyle=1" vertex="1" parent="1">
          <mxGeometry x="294.72" y="4202.5" width="120" height="40" as="geometry" />
        </mxCell>
        <mxCell id="KSI9k0JgUmXzMZMYq2L--44" value="" style="whiteSpace=wrap;html=1;aspect=fixed;fillColor=#e1d5e7;strokeColor=#9673a6;sketch=1;curveFitting=1;jiggle=2;" vertex="1" parent="1">
          <mxGeometry x="735.72" y="4462.5" width="60" height="60" as="geometry" />
        </mxCell>
        <mxCell id="KSI9k0JgUmXzMZMYq2L--45" value="" style="whiteSpace=wrap;html=1;aspect=fixed;fillColor=#e1d5e7;strokeColor=#9673a6;sketch=1;curveFitting=1;jiggle=2;" vertex="1" parent="1">
          <mxGeometry x="795.72" y="4462.5" width="60" height="60" as="geometry" />
        </mxCell>
        <mxCell id="KSI9k0JgUmXzMZMYq2L--46" value="" style="whiteSpace=wrap;html=1;aspect=fixed;fillColor=#e1d5e7;strokeColor=#9673a6;sketch=1;curveFitting=1;jiggle=2;" vertex="1" parent="1">
          <mxGeometry x="858.8399999999999" y="4462.5" width="60" height="60" as="geometry" />
        </mxCell>
        <mxCell id="KSI9k0JgUmXzMZMYq2L--50" value="" style="whiteSpace=wrap;html=1;aspect=fixed;fillColor=#dae8fc;strokeColor=#6c8ebf;sketch=1;curveFitting=1;jiggle=2;" vertex="1" parent="1">
          <mxGeometry x="157.32000000000002" y="4382.5" width="60" height="60" as="geometry" />
        </mxCell>
        <mxCell id="KSI9k0JgUmXzMZMYq2L--51" value="" style="whiteSpace=wrap;html=1;aspect=fixed;fillColor=#dae8fc;strokeColor=#6c8ebf;sketch=1;curveFitting=1;jiggle=2;" vertex="1" parent="1">
          <mxGeometry x="217.32000000000002" y="4382.5" width="60" height="60" as="geometry" />
        </mxCell>
        <mxCell id="KSI9k0JgUmXzMZMYq2L--53" style="rounded=0;orthogonalLoop=1;jettySize=auto;html=1;exitX=1;exitY=0.5;exitDx=0;exitDy=0;entryX=0.392;entryY=-0.042;entryDx=0;entryDy=0;entryPerimeter=0;sketch=1;curveFitting=1;jiggle=2;strokeWidth=2;" edge="1" parent="1" source="KSI9k0JgUmXzMZMYq2L--6" target="KSI9k0JgUmXzMZMYq2L--12">
          <mxGeometry relative="1" as="geometry" />
        </mxCell>
        <mxCell id="KSI9k0JgUmXzMZMYq2L--54" value="" style="shape=curlyBracket;whiteSpace=wrap;html=1;rounded=1;flipH=1;labelPosition=right;verticalLabelPosition=middle;align=left;verticalAlign=middle;rotation=90;sketch=1;curveFitting=1;jiggle=2;strokeWidth=2;" vertex="1" parent="1">
          <mxGeometry x="850.3399999999999" y="4434.25" width="8.5" height="230" as="geometry" />
        </mxCell>
        <mxCell id="KSI9k0JgUmXzMZMYq2L--55" value="&lt;b&gt;KV Cache&lt;/b&gt;&amp;nbsp;&amp;lt;- from&amp;nbsp;&lt;div&gt;&lt;b&gt;&lt;font color=&quot;#b266ff&quot;&gt;Prefix Cache&lt;/font&gt;&lt;/b&gt;&lt;/div&gt;" style="text;html=1;align=center;verticalAlign=middle;resizable=0;points=[];autosize=1;strokeColor=none;fillColor=none;fontSize=15;fontFamily=Comic Sans MS;" vertex="1" parent="1">
          <mxGeometry x="787.72" y="4562.5" width="150" height="50" as="geometry" />
        </mxCell>
        <mxCell id="KSI9k0JgUmXzMZMYq2L--66" value="&lt;div style=&quot;text-align: start; font-size: 14px;&quot;&gt;1&lt;/div&gt;" style="whiteSpace=wrap;html=1;fontFamily=Comic Sans MS;fillColor=#ffe6cc;strokeColor=#d79b00;rounded=1;sketch=1;curveFitting=1;jiggle=2;strokeWidth=2;fontStyle=1;fontSize=14;" vertex="1" parent="1">
          <mxGeometry x="801.25" y="4933.25" width="50" height="50" as="geometry" />
        </mxCell>
        <mxCell id="KSI9k0JgUmXzMZMYq2L--78" value="&lt;div style=&quot;text-align: start; font-size: 18px;&quot;&gt;&lt;span style=&quot;font-size: 14px;&quot;&gt;1&lt;/span&gt;&lt;br&gt;&lt;/div&gt;" style="whiteSpace=wrap;html=1;fontFamily=Comic Sans MS;fillColor=#ffe6cc;strokeColor=#d79b00;rounded=1;sketch=1;curveFitting=1;jiggle=2;strokeWidth=2;fontStyle=1;fontSize=18;" vertex="1" parent="1">
          <mxGeometry x="861.25" y="4933.25" width="50" height="50" as="geometry" />
        </mxCell>
        <mxCell id="KSI9k0JgUmXzMZMYq2L--79" value="&lt;div style=&quot;text-align: start; font-size: 18px;&quot;&gt;&lt;span style=&quot;font-size: 14px;&quot;&gt;1&lt;/span&gt;&lt;br&gt;&lt;/div&gt;" style="whiteSpace=wrap;html=1;fontFamily=Comic Sans MS;fillColor=#ffe6cc;strokeColor=#d79b00;rounded=1;sketch=1;curveFitting=1;jiggle=2;strokeWidth=2;fontStyle=1;fontSize=18;" vertex="1" parent="1">
          <mxGeometry x="921.25" y="4933.25" width="50" height="50" as="geometry" />
        </mxCell>
        <mxCell id="KSI9k0JgUmXzMZMYq2L--80" value="&lt;div style=&quot;text-align: start; font-size: 18px;&quot;&gt;&lt;span style=&quot;font-size: 14px;&quot;&gt;1&lt;/span&gt;&lt;br&gt;&lt;/div&gt;" style="whiteSpace=wrap;html=1;fontFamily=Comic Sans MS;fillColor=#ffe6cc;strokeColor=#d79b00;rounded=1;sketch=1;curveFitting=1;jiggle=2;strokeWidth=2;fontStyle=1;fontSize=18;" vertex="1" parent="1">
          <mxGeometry x="981.25" y="4933.25" width="50" height="50" as="geometry" />
        </mxCell>
        <mxCell id="KSI9k0JgUmXzMZMYq2L--81" value="&lt;div style=&quot;text-align: start; font-size: 18px;&quot;&gt;&lt;span style=&quot;font-size: 14px;&quot;&gt;1&lt;/span&gt;&lt;br&gt;&lt;/div&gt;" style="whiteSpace=wrap;html=1;fontFamily=Comic Sans MS;fillColor=#ffe6cc;strokeColor=#d79b00;rounded=1;sketch=1;curveFitting=1;jiggle=2;strokeWidth=2;fontStyle=1;fontSize=18;" vertex="1" parent="1">
          <mxGeometry x="1041.25" y="4933.25" width="50" height="50" as="geometry" />
        </mxCell>
        <mxCell id="KSI9k0JgUmXzMZMYq2L--82" value="&lt;div style=&quot;text-align: start; font-size: 18px;&quot;&gt;&lt;span style=&quot;font-size: 14px;&quot;&gt;1&lt;/span&gt;&lt;br&gt;&lt;/div&gt;" style="whiteSpace=wrap;html=1;fontFamily=Comic Sans MS;fillColor=#ffe6cc;strokeColor=#d79b00;rounded=1;sketch=1;curveFitting=1;jiggle=2;strokeWidth=2;fontStyle=1;fontSize=18;" vertex="1" parent="1">
          <mxGeometry x="1101.25" y="4933.25" width="50" height="50" as="geometry" />
        </mxCell>
        <mxCell id="KSI9k0JgUmXzMZMYq2L--83" value="&lt;div style=&quot;text-align: start; font-size: 18px;&quot;&gt;&lt;span style=&quot;font-size: 14px;&quot;&gt;0&lt;/span&gt;&lt;br&gt;&lt;/div&gt;" style="whiteSpace=wrap;html=1;fontFamily=Comic Sans MS;fillColor=#d5e8d4;strokeColor=#82b366;rounded=1;sketch=1;curveFitting=1;jiggle=2;strokeWidth=2;fontStyle=1;fontSize=18;" vertex="1" parent="1">
          <mxGeometry x="1161.25" y="4933.25" width="50" height="50" as="geometry" />
        </mxCell>
        <mxCell id="KSI9k0JgUmXzMZMYq2L--84" value="&lt;div style=&quot;text-align: start; font-size: 15px;&quot;&gt;0&lt;/div&gt;" style="whiteSpace=wrap;html=1;fontFamily=Comic Sans MS;fillColor=#d5e8d4;strokeColor=#82b366;rounded=1;strokeWidth=2;fontStyle=1;fontSize=15;sketch=1;curveFitting=1;jiggle=2;" vertex="1" parent="1">
          <mxGeometry x="1221.25" y="4933.25" width="50" height="50" as="geometry" />
        </mxCell>
        <mxCell id="KSI9k0JgUmXzMZMYq2L--142" value="&lt;div style=&quot;text-align: start; font-size: 14px;&quot;&gt;1&lt;/div&gt;" style="whiteSpace=wrap;html=1;fontFamily=Comic Sans MS;fillColor=#ffe6cc;strokeColor=#d79b00;rounded=1;sketch=1;curveFitting=1;jiggle=2;strokeWidth=2;fontStyle=1;fontSize=14;" vertex="1" parent="1">
          <mxGeometry x="801.25" y="4983.25" width="50" height="50" as="geometry" />
        </mxCell>
        <mxCell id="KSI9k0JgUmXzMZMYq2L--143" value="&lt;div style=&quot;text-align: start; font-size: 18px;&quot;&gt;&lt;span style=&quot;font-size: 14px;&quot;&gt;1&lt;/span&gt;&lt;br&gt;&lt;/div&gt;" style="whiteSpace=wrap;html=1;fontFamily=Comic Sans MS;fillColor=#ffe6cc;strokeColor=#d79b00;rounded=1;sketch=1;curveFitting=1;jiggle=2;strokeWidth=2;fontStyle=1;fontSize=18;" vertex="1" parent="1">
          <mxGeometry x="861.25" y="4983.25" width="50" height="50" as="geometry" />
        </mxCell>
        <mxCell id="KSI9k0JgUmXzMZMYq2L--144" value="&lt;div style=&quot;text-align: start; font-size: 18px;&quot;&gt;&lt;span style=&quot;font-size: 14px;&quot;&gt;1&lt;/span&gt;&lt;br&gt;&lt;/div&gt;" style="whiteSpace=wrap;html=1;fontFamily=Comic Sans MS;fillColor=#ffe6cc;strokeColor=#d79b00;rounded=1;sketch=1;curveFitting=1;jiggle=2;strokeWidth=2;fontStyle=1;fontSize=18;" vertex="1" parent="1">
          <mxGeometry x="921.25" y="4983.25" width="50" height="50" as="geometry" />
        </mxCell>
        <mxCell id="KSI9k0JgUmXzMZMYq2L--145" value="&lt;div style=&quot;text-align: start; font-size: 18px;&quot;&gt;&lt;span style=&quot;font-size: 14px;&quot;&gt;1&lt;/span&gt;&lt;br&gt;&lt;/div&gt;" style="whiteSpace=wrap;html=1;fontFamily=Comic Sans MS;fillColor=#ffe6cc;strokeColor=#d79b00;rounded=1;sketch=1;curveFitting=1;jiggle=2;strokeWidth=2;fontStyle=1;fontSize=18;" vertex="1" parent="1">
          <mxGeometry x="981.25" y="4983.25" width="50" height="50" as="geometry" />
        </mxCell>
        <mxCell id="KSI9k0JgUmXzMZMYq2L--146" value="&lt;div style=&quot;text-align: start; font-size: 18px;&quot;&gt;&lt;span style=&quot;font-size: 14px;&quot;&gt;1&lt;/span&gt;&lt;br&gt;&lt;/div&gt;" style="whiteSpace=wrap;html=1;fontFamily=Comic Sans MS;fillColor=#ffe6cc;strokeColor=#d79b00;rounded=1;sketch=1;curveFitting=1;jiggle=2;strokeWidth=2;fontStyle=1;fontSize=18;" vertex="1" parent="1">
          <mxGeometry x="1041.25" y="4983.25" width="50" height="50" as="geometry" />
        </mxCell>
        <mxCell id="KSI9k0JgUmXzMZMYq2L--147" value="&lt;div style=&quot;text-align: start; font-size: 18px;&quot;&gt;&lt;span style=&quot;font-size: 14px;&quot;&gt;1&lt;/span&gt;&lt;br&gt;&lt;/div&gt;" style="whiteSpace=wrap;html=1;fontFamily=Comic Sans MS;fillColor=#ffe6cc;strokeColor=#d79b00;rounded=1;sketch=1;curveFitting=1;jiggle=2;strokeWidth=2;fontStyle=1;fontSize=18;" vertex="1" parent="1">
          <mxGeometry x="1101.25" y="4983.25" width="50" height="50" as="geometry" />
        </mxCell>
        <mxCell id="KSI9k0JgUmXzMZMYq2L--148" value="&lt;div style=&quot;text-align: start; font-size: 18px;&quot;&gt;&lt;span style=&quot;font-size: 14px;&quot;&gt;0&lt;/span&gt;&lt;br&gt;&lt;/div&gt;" style="whiteSpace=wrap;html=1;fontFamily=Comic Sans MS;fillColor=#d5e8d4;strokeColor=#82b366;rounded=1;sketch=1;curveFitting=1;jiggle=2;strokeWidth=2;fontStyle=1;fontSize=18;" vertex="1" parent="1">
          <mxGeometry x="1161.25" y="4983.25" width="50" height="50" as="geometry" />
        </mxCell>
        <mxCell id="KSI9k0JgUmXzMZMYq2L--149" value="&lt;div style=&quot;text-align: start; font-size: 15px;&quot;&gt;0&lt;/div&gt;" style="whiteSpace=wrap;html=1;fontFamily=Comic Sans MS;fillColor=#d5e8d4;strokeColor=#82b366;rounded=1;strokeWidth=2;fontStyle=1;fontSize=15;sketch=1;curveFitting=1;jiggle=2;" vertex="1" parent="1">
          <mxGeometry x="1221.25" y="4983.25" width="50" height="50" as="geometry" />
        </mxCell>
        <mxCell id="KSI9k0JgUmXzMZMYq2L--150" value="&lt;div style=&quot;text-align: start; font-size: 14px;&quot;&gt;1&lt;/div&gt;" style="whiteSpace=wrap;html=1;fontFamily=Comic Sans MS;fillColor=#ffe6cc;strokeColor=#d79b00;rounded=1;sketch=1;curveFitting=1;jiggle=2;strokeWidth=2;fontStyle=1;fontSize=14;" vertex="1" parent="1">
          <mxGeometry x="799.81" y="5033.25" width="50" height="50" as="geometry" />
        </mxCell>
        <mxCell id="KSI9k0JgUmXzMZMYq2L--151" value="&lt;div style=&quot;text-align: start; font-size: 18px;&quot;&gt;&lt;span style=&quot;font-size: 14px;&quot;&gt;1&lt;/span&gt;&lt;br&gt;&lt;/div&gt;" style="whiteSpace=wrap;html=1;fontFamily=Comic Sans MS;fillColor=#ffe6cc;strokeColor=#d79b00;rounded=1;sketch=1;curveFitting=1;jiggle=2;strokeWidth=2;fontStyle=1;fontSize=18;" vertex="1" parent="1">
          <mxGeometry x="859.81" y="5033.25" width="50" height="50" as="geometry" />
        </mxCell>
        <mxCell id="KSI9k0JgUmXzMZMYq2L--152" value="&lt;div style=&quot;text-align: start; font-size: 18px;&quot;&gt;&lt;span style=&quot;font-size: 14px;&quot;&gt;1&lt;/span&gt;&lt;br&gt;&lt;/div&gt;" style="whiteSpace=wrap;html=1;fontFamily=Comic Sans MS;fillColor=#ffe6cc;strokeColor=#d79b00;rounded=1;sketch=1;curveFitting=1;jiggle=2;strokeWidth=2;fontStyle=1;fontSize=18;" vertex="1" parent="1">
          <mxGeometry x="919.81" y="5033.25" width="50" height="50" as="geometry" />
        </mxCell>
        <mxCell id="KSI9k0JgUmXzMZMYq2L--153" value="&lt;div style=&quot;text-align: start; font-size: 18px;&quot;&gt;&lt;span style=&quot;font-size: 14px;&quot;&gt;1&lt;/span&gt;&lt;br&gt;&lt;/div&gt;" style="whiteSpace=wrap;html=1;fontFamily=Comic Sans MS;fillColor=#ffe6cc;strokeColor=#d79b00;rounded=1;sketch=1;curveFitting=1;jiggle=2;strokeWidth=2;fontStyle=1;fontSize=18;" vertex="1" parent="1">
          <mxGeometry x="979.81" y="5033.25" width="50" height="50" as="geometry" />
        </mxCell>
        <mxCell id="KSI9k0JgUmXzMZMYq2L--154" value="&lt;div style=&quot;text-align: start; font-size: 18px;&quot;&gt;&lt;span style=&quot;font-size: 14px;&quot;&gt;1&lt;/span&gt;&lt;br&gt;&lt;/div&gt;" style="whiteSpace=wrap;html=1;fontFamily=Comic Sans MS;fillColor=#ffe6cc;strokeColor=#d79b00;rounded=1;sketch=1;curveFitting=1;jiggle=2;strokeWidth=2;fontStyle=1;fontSize=18;" vertex="1" parent="1">
          <mxGeometry x="1039.81" y="5033.25" width="50" height="50" as="geometry" />
        </mxCell>
        <mxCell id="KSI9k0JgUmXzMZMYq2L--155" value="&lt;div style=&quot;text-align: start; font-size: 18px;&quot;&gt;&lt;span style=&quot;font-size: 14px;&quot;&gt;1&lt;/span&gt;&lt;br&gt;&lt;/div&gt;" style="whiteSpace=wrap;html=1;fontFamily=Comic Sans MS;fillColor=#ffe6cc;strokeColor=#d79b00;rounded=1;sketch=1;curveFitting=1;jiggle=2;strokeWidth=2;fontStyle=1;fontSize=18;" vertex="1" parent="1">
          <mxGeometry x="1099.81" y="5033.25" width="50" height="50" as="geometry" />
        </mxCell>
        <mxCell id="KSI9k0JgUmXzMZMYq2L--156" value="&lt;div style=&quot;text-align: start; font-size: 18px;&quot;&gt;&lt;span style=&quot;font-size: 14px;&quot;&gt;0&lt;/span&gt;&lt;br&gt;&lt;/div&gt;" style="whiteSpace=wrap;html=1;fontFamily=Comic Sans MS;fillColor=#d5e8d4;strokeColor=#82b366;rounded=1;sketch=1;curveFitting=1;jiggle=2;strokeWidth=2;fontStyle=1;fontSize=18;" vertex="1" parent="1">
          <mxGeometry x="1159.81" y="5033.25" width="50" height="50" as="geometry" />
        </mxCell>
        <mxCell id="KSI9k0JgUmXzMZMYq2L--157" value="&lt;div style=&quot;text-align: start; font-size: 15px;&quot;&gt;0&lt;/div&gt;" style="whiteSpace=wrap;html=1;fontFamily=Comic Sans MS;fillColor=#d5e8d4;strokeColor=#82b366;rounded=1;strokeWidth=2;fontStyle=1;fontSize=15;sketch=1;curveFitting=1;jiggle=2;" vertex="1" parent="1">
          <mxGeometry x="1219.81" y="5033.25" width="50" height="50" as="geometry" />
        </mxCell>
        <mxCell id="KSI9k0JgUmXzMZMYq2L--158" value="&lt;div style=&quot;text-align: start; font-size: 14px;&quot;&gt;1&lt;/div&gt;" style="whiteSpace=wrap;html=1;fontFamily=Comic Sans MS;fillColor=#ffe6cc;strokeColor=#d79b00;rounded=1;sketch=1;curveFitting=1;jiggle=2;strokeWidth=2;fontStyle=1;fontSize=14;" vertex="1" parent="1">
          <mxGeometry x="799.81" y="5083.25" width="50" height="50" as="geometry" />
        </mxCell>
        <mxCell id="KSI9k0JgUmXzMZMYq2L--159" value="&lt;div style=&quot;text-align: start; font-size: 18px;&quot;&gt;&lt;span style=&quot;font-size: 14px;&quot;&gt;1&lt;/span&gt;&lt;br&gt;&lt;/div&gt;" style="whiteSpace=wrap;html=1;fontFamily=Comic Sans MS;fillColor=#ffe6cc;strokeColor=#d79b00;rounded=1;sketch=1;curveFitting=1;jiggle=2;strokeWidth=2;fontStyle=1;fontSize=18;" vertex="1" parent="1">
          <mxGeometry x="859.81" y="5083.25" width="50" height="50" as="geometry" />
        </mxCell>
        <mxCell id="KSI9k0JgUmXzMZMYq2L--160" value="&lt;div style=&quot;text-align: start; font-size: 18px;&quot;&gt;&lt;span style=&quot;font-size: 14px;&quot;&gt;1&lt;/span&gt;&lt;br&gt;&lt;/div&gt;" style="whiteSpace=wrap;html=1;fontFamily=Comic Sans MS;fillColor=#ffe6cc;strokeColor=#d79b00;rounded=1;sketch=1;curveFitting=1;jiggle=2;strokeWidth=2;fontStyle=1;fontSize=18;" vertex="1" parent="1">
          <mxGeometry x="919.81" y="5083.25" width="50" height="50" as="geometry" />
        </mxCell>
        <mxCell id="KSI9k0JgUmXzMZMYq2L--161" value="&lt;div style=&quot;text-align: start; font-size: 18px;&quot;&gt;&lt;span style=&quot;font-size: 14px;&quot;&gt;1&lt;/span&gt;&lt;br&gt;&lt;/div&gt;" style="whiteSpace=wrap;html=1;fontFamily=Comic Sans MS;fillColor=#ffe6cc;strokeColor=#d79b00;rounded=1;sketch=1;curveFitting=1;jiggle=2;strokeWidth=2;fontStyle=1;fontSize=18;" vertex="1" parent="1">
          <mxGeometry x="979.81" y="5083.25" width="50" height="50" as="geometry" />
        </mxCell>
        <mxCell id="KSI9k0JgUmXzMZMYq2L--162" value="&lt;div style=&quot;text-align: start; font-size: 18px;&quot;&gt;&lt;span style=&quot;font-size: 14px;&quot;&gt;1&lt;/span&gt;&lt;br&gt;&lt;/div&gt;" style="whiteSpace=wrap;html=1;fontFamily=Comic Sans MS;fillColor=#ffe6cc;strokeColor=#d79b00;rounded=1;sketch=1;curveFitting=1;jiggle=2;strokeWidth=2;fontStyle=1;fontSize=18;" vertex="1" parent="1">
          <mxGeometry x="1039.81" y="5083.25" width="50" height="50" as="geometry" />
        </mxCell>
        <mxCell id="KSI9k0JgUmXzMZMYq2L--163" value="&lt;div style=&quot;text-align: start; font-size: 18px;&quot;&gt;&lt;span style=&quot;font-size: 14px;&quot;&gt;1&lt;/span&gt;&lt;br&gt;&lt;/div&gt;" style="whiteSpace=wrap;html=1;fontFamily=Comic Sans MS;fillColor=#ffe6cc;strokeColor=#d79b00;rounded=1;sketch=1;curveFitting=1;jiggle=2;strokeWidth=2;fontStyle=1;fontSize=18;" vertex="1" parent="1">
          <mxGeometry x="1099.81" y="5083.25" width="50" height="50" as="geometry" />
        </mxCell>
        <mxCell id="KSI9k0JgUmXzMZMYq2L--164" value="&lt;div style=&quot;text-align: start; font-size: 18px;&quot;&gt;&lt;span style=&quot;font-size: 14px;&quot;&gt;0&lt;/span&gt;&lt;br&gt;&lt;/div&gt;" style="whiteSpace=wrap;html=1;fontFamily=Comic Sans MS;fillColor=#d5e8d4;strokeColor=#82b366;rounded=1;sketch=1;curveFitting=1;jiggle=2;strokeWidth=2;fontStyle=1;fontSize=18;" vertex="1" parent="1">
          <mxGeometry x="1159.81" y="5083.25" width="50" height="50" as="geometry" />
        </mxCell>
        <mxCell id="KSI9k0JgUmXzMZMYq2L--165" value="&lt;div style=&quot;text-align: start; font-size: 15px;&quot;&gt;0&lt;/div&gt;" style="whiteSpace=wrap;html=1;fontFamily=Comic Sans MS;fillColor=#d5e8d4;strokeColor=#82b366;rounded=1;strokeWidth=2;fontStyle=1;fontSize=15;sketch=1;curveFitting=1;jiggle=2;" vertex="1" parent="1">
          <mxGeometry x="1219.81" y="5083.25" width="50" height="50" as="geometry" />
        </mxCell>
        <mxCell id="KSI9k0JgUmXzMZMYq2L--166" value="&lt;div style=&quot;text-align: start; font-size: 14px;&quot;&gt;1&lt;/div&gt;" style="whiteSpace=wrap;html=1;fontFamily=Comic Sans MS;fillColor=#ffe6cc;strokeColor=#d79b00;rounded=1;sketch=1;curveFitting=1;jiggle=2;strokeWidth=2;fontStyle=1;fontSize=14;" vertex="1" parent="1">
          <mxGeometry x="798.9100000000001" y="5133.25" width="50" height="50" as="geometry" />
        </mxCell>
        <mxCell id="KSI9k0JgUmXzMZMYq2L--167" value="&lt;div style=&quot;text-align: start; font-size: 18px;&quot;&gt;&lt;span style=&quot;font-size: 14px;&quot;&gt;1&lt;/span&gt;&lt;br&gt;&lt;/div&gt;" style="whiteSpace=wrap;html=1;fontFamily=Comic Sans MS;fillColor=#ffe6cc;strokeColor=#d79b00;rounded=1;sketch=1;curveFitting=1;jiggle=2;strokeWidth=2;fontStyle=1;fontSize=18;" vertex="1" parent="1">
          <mxGeometry x="858.9100000000001" y="5133.25" width="50" height="50" as="geometry" />
        </mxCell>
        <mxCell id="KSI9k0JgUmXzMZMYq2L--168" value="&lt;div style=&quot;text-align: start; font-size: 18px;&quot;&gt;&lt;span style=&quot;font-size: 14px;&quot;&gt;1&lt;/span&gt;&lt;br&gt;&lt;/div&gt;" style="whiteSpace=wrap;html=1;fontFamily=Comic Sans MS;fillColor=#ffe6cc;strokeColor=#d79b00;rounded=1;sketch=1;curveFitting=1;jiggle=2;strokeWidth=2;fontStyle=1;fontSize=18;" vertex="1" parent="1">
          <mxGeometry x="918.9100000000001" y="5133.25" width="50" height="50" as="geometry" />
        </mxCell>
        <mxCell id="KSI9k0JgUmXzMZMYq2L--169" value="&lt;div style=&quot;text-align: start; font-size: 18px;&quot;&gt;&lt;span style=&quot;font-size: 14px;&quot;&gt;1&lt;/span&gt;&lt;br&gt;&lt;/div&gt;" style="whiteSpace=wrap;html=1;fontFamily=Comic Sans MS;fillColor=#ffe6cc;strokeColor=#d79b00;rounded=1;sketch=1;curveFitting=1;jiggle=2;strokeWidth=2;fontStyle=1;fontSize=18;" vertex="1" parent="1">
          <mxGeometry x="978.9100000000001" y="5133.25" width="50" height="50" as="geometry" />
        </mxCell>
        <mxCell id="KSI9k0JgUmXzMZMYq2L--170" value="&lt;div style=&quot;text-align: start; font-size: 18px;&quot;&gt;&lt;span style=&quot;font-size: 14px;&quot;&gt;1&lt;/span&gt;&lt;br&gt;&lt;/div&gt;" style="whiteSpace=wrap;html=1;fontFamily=Comic Sans MS;fillColor=#ffe6cc;strokeColor=#d79b00;rounded=1;sketch=1;curveFitting=1;jiggle=2;strokeWidth=2;fontStyle=1;fontSize=18;" vertex="1" parent="1">
          <mxGeometry x="1038.91" y="5133.25" width="50" height="50" as="geometry" />
        </mxCell>
        <mxCell id="KSI9k0JgUmXzMZMYq2L--171" value="&lt;div style=&quot;text-align: start; font-size: 18px;&quot;&gt;&lt;span style=&quot;font-size: 14px;&quot;&gt;1&lt;/span&gt;&lt;br&gt;&lt;/div&gt;" style="whiteSpace=wrap;html=1;fontFamily=Comic Sans MS;fillColor=#ffe6cc;strokeColor=#d79b00;rounded=1;sketch=1;curveFitting=1;jiggle=2;strokeWidth=2;fontStyle=1;fontSize=18;" vertex="1" parent="1">
          <mxGeometry x="1098.91" y="5133.25" width="50" height="50" as="geometry" />
        </mxCell>
        <mxCell id="KSI9k0JgUmXzMZMYq2L--172" value="&lt;div style=&quot;text-align: start; font-size: 18px;&quot;&gt;&lt;span style=&quot;font-size: 14px;&quot;&gt;0&lt;/span&gt;&lt;br&gt;&lt;/div&gt;" style="whiteSpace=wrap;html=1;fontFamily=Comic Sans MS;fillColor=#d5e8d4;strokeColor=#82b366;rounded=1;sketch=1;curveFitting=1;jiggle=2;strokeWidth=2;fontStyle=1;fontSize=18;" vertex="1" parent="1">
          <mxGeometry x="1158.91" y="5133.25" width="50" height="50" as="geometry" />
        </mxCell>
        <mxCell id="KSI9k0JgUmXzMZMYq2L--173" value="&lt;div style=&quot;text-align: start; font-size: 15px;&quot;&gt;0&lt;/div&gt;" style="whiteSpace=wrap;html=1;fontFamily=Comic Sans MS;fillColor=#d5e8d4;strokeColor=#82b366;rounded=1;strokeWidth=2;fontStyle=1;fontSize=15;sketch=1;curveFitting=1;jiggle=2;" vertex="1" parent="1">
          <mxGeometry x="1218.91" y="5133.25" width="50" height="50" as="geometry" />
        </mxCell>
        <mxCell id="KSI9k0JgUmXzMZMYq2L--174" value="&lt;div style=&quot;text-align: start; font-size: 14px;&quot;&gt;1&lt;/div&gt;" style="whiteSpace=wrap;html=1;fontFamily=Comic Sans MS;fillColor=#ffe6cc;strokeColor=#d79b00;rounded=1;sketch=1;curveFitting=1;jiggle=2;strokeWidth=2;fontStyle=1;fontSize=14;" vertex="1" parent="1">
          <mxGeometry x="798.9100000000001" y="5183.25" width="50" height="50" as="geometry" />
        </mxCell>
        <mxCell id="KSI9k0JgUmXzMZMYq2L--175" value="&lt;div style=&quot;text-align: start; font-size: 18px;&quot;&gt;&lt;span style=&quot;font-size: 14px;&quot;&gt;1&lt;/span&gt;&lt;br&gt;&lt;/div&gt;" style="whiteSpace=wrap;html=1;fontFamily=Comic Sans MS;fillColor=#ffe6cc;strokeColor=#d79b00;rounded=1;sketch=1;curveFitting=1;jiggle=2;strokeWidth=2;fontStyle=1;fontSize=18;" vertex="1" parent="1">
          <mxGeometry x="858.9100000000001" y="5183.25" width="50" height="50" as="geometry" />
        </mxCell>
        <mxCell id="KSI9k0JgUmXzMZMYq2L--176" value="&lt;div style=&quot;text-align: start; font-size: 18px;&quot;&gt;&lt;span style=&quot;font-size: 14px;&quot;&gt;1&lt;/span&gt;&lt;br&gt;&lt;/div&gt;" style="whiteSpace=wrap;html=1;fontFamily=Comic Sans MS;fillColor=#ffe6cc;strokeColor=#d79b00;rounded=1;sketch=1;curveFitting=1;jiggle=2;strokeWidth=2;fontStyle=1;fontSize=18;" vertex="1" parent="1">
          <mxGeometry x="918.9100000000001" y="5183.25" width="50" height="50" as="geometry" />
        </mxCell>
        <mxCell id="KSI9k0JgUmXzMZMYq2L--177" value="&lt;div style=&quot;text-align: start; font-size: 18px;&quot;&gt;&lt;span style=&quot;font-size: 14px;&quot;&gt;1&lt;/span&gt;&lt;br&gt;&lt;/div&gt;" style="whiteSpace=wrap;html=1;fontFamily=Comic Sans MS;fillColor=#ffe6cc;strokeColor=#d79b00;rounded=1;sketch=1;curveFitting=1;jiggle=2;strokeWidth=2;fontStyle=1;fontSize=18;" vertex="1" parent="1">
          <mxGeometry x="978.9100000000001" y="5183.25" width="50" height="50" as="geometry" />
        </mxCell>
        <mxCell id="KSI9k0JgUmXzMZMYq2L--178" value="&lt;div style=&quot;text-align: start; font-size: 18px;&quot;&gt;&lt;span style=&quot;font-size: 14px;&quot;&gt;1&lt;/span&gt;&lt;br&gt;&lt;/div&gt;" style="whiteSpace=wrap;html=1;fontFamily=Comic Sans MS;fillColor=#ffe6cc;strokeColor=#d79b00;rounded=1;sketch=1;curveFitting=1;jiggle=2;strokeWidth=2;fontStyle=1;fontSize=18;" vertex="1" parent="1">
          <mxGeometry x="1038.91" y="5183.25" width="50" height="50" as="geometry" />
        </mxCell>
        <mxCell id="KSI9k0JgUmXzMZMYq2L--179" value="&lt;div style=&quot;text-align: start; font-size: 18px;&quot;&gt;&lt;span style=&quot;font-size: 14px;&quot;&gt;1&lt;/span&gt;&lt;br&gt;&lt;/div&gt;" style="whiteSpace=wrap;html=1;fontFamily=Comic Sans MS;fillColor=#ffe6cc;strokeColor=#d79b00;rounded=1;sketch=1;curveFitting=1;jiggle=2;strokeWidth=2;fontStyle=1;fontSize=18;" vertex="1" parent="1">
          <mxGeometry x="1098.91" y="5183.25" width="50" height="50" as="geometry" />
        </mxCell>
        <mxCell id="KSI9k0JgUmXzMZMYq2L--180" value="&lt;div style=&quot;text-align: start; font-size: 18px;&quot;&gt;&lt;span style=&quot;font-size: 14px;&quot;&gt;0&lt;/span&gt;&lt;br&gt;&lt;/div&gt;" style="whiteSpace=wrap;html=1;fontFamily=Comic Sans MS;fillColor=#d5e8d4;strokeColor=#82b366;rounded=1;sketch=1;curveFitting=1;jiggle=2;strokeWidth=2;fontStyle=1;fontSize=18;" vertex="1" parent="1">
          <mxGeometry x="1158.91" y="5183.25" width="50" height="50" as="geometry" />
        </mxCell>
        <mxCell id="KSI9k0JgUmXzMZMYq2L--181" value="&lt;div style=&quot;text-align: start; font-size: 15px;&quot;&gt;0&lt;/div&gt;" style="whiteSpace=wrap;html=1;fontFamily=Comic Sans MS;fillColor=#d5e8d4;strokeColor=#82b366;rounded=1;strokeWidth=2;fontStyle=1;fontSize=15;sketch=1;curveFitting=1;jiggle=2;" vertex="1" parent="1">
          <mxGeometry x="1218.91" y="5183.25" width="50" height="50" as="geometry" />
        </mxCell>
        <mxCell id="KSI9k0JgUmXzMZMYq2L--182" value="&lt;div style=&quot;text-align: start; font-size: 14px;&quot;&gt;0&lt;/div&gt;" style="whiteSpace=wrap;html=1;fontFamily=Comic Sans MS;fillColor=#e1d5e7;strokeColor=#9673a6;rounded=1;sketch=1;curveFitting=1;jiggle=2;strokeWidth=2;fontStyle=1;fontSize=14;" vertex="1" parent="1">
          <mxGeometry x="797.47" y="5233.25" width="50" height="50" as="geometry" />
        </mxCell>
        <mxCell id="KSI9k0JgUmXzMZMYq2L--183" value="&lt;div style=&quot;text-align: start; font-size: 18px;&quot;&gt;&lt;span style=&quot;font-size: 14px;&quot;&gt;0&lt;/span&gt;&lt;br&gt;&lt;/div&gt;" style="whiteSpace=wrap;html=1;fontFamily=Comic Sans MS;fillColor=#e1d5e7;strokeColor=#9673a6;rounded=1;sketch=1;curveFitting=1;jiggle=2;strokeWidth=2;fontStyle=1;fontSize=18;" vertex="1" parent="1">
          <mxGeometry x="857.47" y="5233.25" width="50" height="50" as="geometry" />
        </mxCell>
        <mxCell id="KSI9k0JgUmXzMZMYq2L--184" value="&lt;div style=&quot;text-align: start; font-size: 18px;&quot;&gt;&lt;span style=&quot;font-size: 14px;&quot;&gt;0&lt;/span&gt;&lt;br&gt;&lt;/div&gt;" style="whiteSpace=wrap;html=1;fontFamily=Comic Sans MS;fillColor=#e1d5e7;strokeColor=#9673a6;rounded=1;sketch=1;curveFitting=1;jiggle=2;strokeWidth=2;fontStyle=1;fontSize=18;" vertex="1" parent="1">
          <mxGeometry x="917.47" y="5233.25" width="50" height="50" as="geometry" />
        </mxCell>
        <mxCell id="KSI9k0JgUmXzMZMYq2L--185" value="&lt;div style=&quot;text-align: start; font-size: 18px;&quot;&gt;&lt;span style=&quot;font-size: 14px;&quot;&gt;0&lt;/span&gt;&lt;br&gt;&lt;/div&gt;" style="whiteSpace=wrap;html=1;fontFamily=Comic Sans MS;fillColor=#e1d5e7;strokeColor=#9673a6;rounded=1;sketch=1;curveFitting=1;jiggle=2;strokeWidth=2;fontStyle=1;fontSize=18;" vertex="1" parent="1">
          <mxGeometry x="977.47" y="5233.25" width="50" height="50" as="geometry" />
        </mxCell>
        <mxCell id="KSI9k0JgUmXzMZMYq2L--186" value="&lt;div style=&quot;text-align: start; font-size: 18px;&quot;&gt;&lt;span style=&quot;font-size: 14px;&quot;&gt;0&lt;/span&gt;&lt;br&gt;&lt;/div&gt;" style="whiteSpace=wrap;html=1;fontFamily=Comic Sans MS;fillColor=#e1d5e7;strokeColor=#9673a6;rounded=1;sketch=1;curveFitting=1;jiggle=2;strokeWidth=2;fontStyle=1;fontSize=18;" vertex="1" parent="1">
          <mxGeometry x="1037.47" y="5233.25" width="50" height="50" as="geometry" />
        </mxCell>
        <mxCell id="KSI9k0JgUmXzMZMYq2L--187" value="&lt;div style=&quot;text-align: start; font-size: 18px;&quot;&gt;&lt;span style=&quot;font-size: 14px;&quot;&gt;0&lt;/span&gt;&lt;br&gt;&lt;/div&gt;" style="whiteSpace=wrap;html=1;fontFamily=Comic Sans MS;fillColor=#e1d5e7;strokeColor=#9673a6;rounded=1;sketch=1;curveFitting=1;jiggle=2;strokeWidth=2;fontStyle=1;fontSize=18;" vertex="1" parent="1">
          <mxGeometry x="1097.47" y="5233.25" width="50" height="50" as="geometry" />
        </mxCell>
        <mxCell id="KSI9k0JgUmXzMZMYq2L--188" value="&lt;div style=&quot;text-align: start; font-size: 18px;&quot;&gt;&lt;span style=&quot;font-size: 14px;&quot;&gt;0&lt;/span&gt;&lt;br&gt;&lt;/div&gt;" style="whiteSpace=wrap;html=1;fontFamily=Comic Sans MS;fillColor=#e1d5e7;strokeColor=#9673a6;rounded=1;sketch=1;curveFitting=1;jiggle=2;strokeWidth=2;fontStyle=1;fontSize=18;" vertex="1" parent="1">
          <mxGeometry x="1157.47" y="5233.25" width="50" height="50" as="geometry" />
        </mxCell>
        <mxCell id="KSI9k0JgUmXzMZMYq2L--189" value="&lt;div style=&quot;text-align: start; font-size: 15px;&quot;&gt;0&lt;/div&gt;" style="whiteSpace=wrap;html=1;fontFamily=Comic Sans MS;fillColor=#e1d5e7;strokeColor=#9673a6;rounded=1;strokeWidth=2;fontStyle=1;fontSize=15;sketch=1;curveFitting=1;jiggle=2;" vertex="1" parent="1">
          <mxGeometry x="1217.47" y="5233.25" width="50" height="50" as="geometry" />
        </mxCell>
        <mxCell id="KSI9k0JgUmXzMZMYq2L--190" value="&lt;div style=&quot;text-align: start; font-size: 14px;&quot;&gt;0&lt;/div&gt;" style="whiteSpace=wrap;html=1;fontFamily=Comic Sans MS;fillColor=#e1d5e7;strokeColor=#9673a6;rounded=1;sketch=1;curveFitting=1;jiggle=2;strokeWidth=2;fontStyle=1;fontSize=14;" vertex="1" parent="1">
          <mxGeometry x="797.47" y="5283.25" width="50" height="50" as="geometry" />
        </mxCell>
        <mxCell id="KSI9k0JgUmXzMZMYq2L--191" value="&lt;div style=&quot;text-align: start; font-size: 18px;&quot;&gt;&lt;span style=&quot;font-size: 14px;&quot;&gt;0&lt;/span&gt;&lt;br&gt;&lt;/div&gt;" style="whiteSpace=wrap;html=1;fontFamily=Comic Sans MS;fillColor=#e1d5e7;strokeColor=#9673a6;rounded=1;sketch=1;curveFitting=1;jiggle=2;strokeWidth=2;fontStyle=1;fontSize=18;" vertex="1" parent="1">
          <mxGeometry x="857.47" y="5283.25" width="50" height="50" as="geometry" />
        </mxCell>
        <mxCell id="KSI9k0JgUmXzMZMYq2L--192" value="&lt;div style=&quot;text-align: start; font-size: 18px;&quot;&gt;&lt;span style=&quot;font-size: 14px;&quot;&gt;0&lt;/span&gt;&lt;br&gt;&lt;/div&gt;" style="whiteSpace=wrap;html=1;fontFamily=Comic Sans MS;fillColor=#e1d5e7;strokeColor=#9673a6;rounded=1;sketch=1;curveFitting=1;jiggle=2;strokeWidth=2;fontStyle=1;fontSize=18;" vertex="1" parent="1">
          <mxGeometry x="917.47" y="5283.25" width="50" height="50" as="geometry" />
        </mxCell>
        <mxCell id="KSI9k0JgUmXzMZMYq2L--193" value="&lt;div style=&quot;text-align: start; font-size: 18px;&quot;&gt;&lt;span style=&quot;font-size: 14px;&quot;&gt;0&lt;/span&gt;&lt;br&gt;&lt;/div&gt;" style="whiteSpace=wrap;html=1;fontFamily=Comic Sans MS;fillColor=#e1d5e7;strokeColor=#9673a6;rounded=1;sketch=1;curveFitting=1;jiggle=2;strokeWidth=2;fontStyle=1;fontSize=18;" vertex="1" parent="1">
          <mxGeometry x="977.47" y="5283.25" width="50" height="50" as="geometry" />
        </mxCell>
        <mxCell id="KSI9k0JgUmXzMZMYq2L--194" value="&lt;div style=&quot;text-align: start; font-size: 18px;&quot;&gt;&lt;span style=&quot;font-size: 14px;&quot;&gt;0&lt;/span&gt;&lt;br&gt;&lt;/div&gt;" style="whiteSpace=wrap;html=1;fontFamily=Comic Sans MS;fillColor=#e1d5e7;strokeColor=#9673a6;rounded=1;sketch=1;curveFitting=1;jiggle=2;strokeWidth=2;fontStyle=1;fontSize=18;" vertex="1" parent="1">
          <mxGeometry x="1037.47" y="5283.25" width="50" height="50" as="geometry" />
        </mxCell>
        <mxCell id="KSI9k0JgUmXzMZMYq2L--195" value="&lt;div style=&quot;text-align: start; font-size: 18px;&quot;&gt;&lt;span style=&quot;font-size: 14px;&quot;&gt;0&lt;/span&gt;&lt;br&gt;&lt;/div&gt;" style="whiteSpace=wrap;html=1;fontFamily=Comic Sans MS;fillColor=#e1d5e7;strokeColor=#9673a6;rounded=1;sketch=1;curveFitting=1;jiggle=2;strokeWidth=2;fontStyle=1;fontSize=18;" vertex="1" parent="1">
          <mxGeometry x="1097.47" y="5283.25" width="50" height="50" as="geometry" />
        </mxCell>
        <mxCell id="KSI9k0JgUmXzMZMYq2L--196" value="&lt;div style=&quot;text-align: start; font-size: 18px;&quot;&gt;&lt;span style=&quot;font-size: 14px;&quot;&gt;0&lt;/span&gt;&lt;br&gt;&lt;/div&gt;" style="whiteSpace=wrap;html=1;fontFamily=Comic Sans MS;fillColor=#e1d5e7;strokeColor=#9673a6;rounded=1;sketch=1;curveFitting=1;jiggle=2;strokeWidth=2;fontStyle=1;fontSize=18;" vertex="1" parent="1">
          <mxGeometry x="1157.47" y="5283.25" width="50" height="50" as="geometry" />
        </mxCell>
        <mxCell id="KSI9k0JgUmXzMZMYq2L--197" value="&lt;div style=&quot;text-align: start; font-size: 15px;&quot;&gt;0&lt;/div&gt;" style="whiteSpace=wrap;html=1;fontFamily=Comic Sans MS;fillColor=#e1d5e7;strokeColor=#9673a6;rounded=1;strokeWidth=2;fontStyle=1;fontSize=15;sketch=1;curveFitting=1;jiggle=2;" vertex="1" parent="1">
          <mxGeometry x="1217.47" y="5283.25" width="50" height="50" as="geometry" />
        </mxCell>
        <mxCell id="KSI9k0JgUmXzMZMYq2L--198" value="" style="shape=curlyBracket;whiteSpace=wrap;html=1;rounded=1;flipH=1;labelPosition=right;verticalLabelPosition=middle;align=left;verticalAlign=middle;rotation=-90;sketch=1;curveFitting=1;jiggle=2;strokeWidth=2;" vertex="1" parent="1">
          <mxGeometry x="1023.06" y="4680" width="22" height="450" as="geometry" />
        </mxCell>
        <mxCell id="KSI9k0JgUmXzMZMYq2L--199" value="Head Size" style="text;html=1;align=center;verticalAlign=middle;resizable=0;points=[];autosize=1;strokeColor=default;fillColor=none;fontFamily=Comic Sans MS;fontStyle=1;fontSize=15;sketch=1;curveFitting=1;jiggle=2;" vertex="1" parent="1">
          <mxGeometry x="986.31" y="4863.25" width="100" height="30" as="geometry" />
        </mxCell>
        <mxCell id="KSI9k0JgUmXzMZMYq2L--200" value="" style="shape=curlyBracket;whiteSpace=wrap;html=1;rounded=1;flipH=1;labelPosition=right;verticalLabelPosition=middle;align=left;verticalAlign=middle;rotation=-180;sketch=1;curveFitting=1;jiggle=2;strokeWidth=2;" vertex="1" parent="1">
          <mxGeometry x="756.31" y="4933.25" width="22" height="390" as="geometry" />
        </mxCell>
        <mxCell id="KSI9k0JgUmXzMZMYq2L--201" value="seq_len" style="text;html=1;align=center;verticalAlign=middle;resizable=0;points=[];autosize=1;strokeColor=default;fillColor=none;fontFamily=Comic Sans MS;fontStyle=1;fontSize=15;sketch=1;curveFitting=1;jiggle=2;" vertex="1" parent="1">
          <mxGeometry x="651.31" y="5118.25" width="80" height="30" as="geometry" />
        </mxCell>
      </root>
    </mxGraphModel>
  </diagram>
</mxfile>
